<?xml version="1.0" encoding="utf-8"?>
<!-- Generator: Adobe Illustrator 27.5.0, SVG Export Plug-In . SVG Version: 6.00 Build 0)  -->
<svg version="1.1" xmlns="http://www.w3.org/2000/svg" xmlns:xlink="http://www.w3.org/1999/xlink" x="0px" y="0px"
	 viewBox="0 0 500 500" style="enable-background:new 0 0 500 500;" xml:space="preserve">
<g id="Background">
	<rect style="fill:#293155;" width="500" height="500"/>
</g>
<g id="Objects">
	<g>
		<path style="fill:#ABD4EF;" d="M472.898,277.037c0,56.974-24.703,108.181-63.974,143.504
			c-7.294,6.557-15.094,12.578-23.335,17.978c0,0-210.372,0.547-211.215,0c-8.241-5.4-16.041-11.42-23.335-17.978
			c-9.641-8.673-18.398-18.293-26.135-28.724c-6.421-8.673-12.146-17.893-17.062-27.598c-11.146-21.966-18.22-46.365-20.209-72.184
			c-0.379-4.947-0.568-9.947-0.568-14.999v-0.779c0.2-49.796,19.272-95.14,50.417-129.263
			c12.767-13.978,27.566-26.072,43.923-35.808c28.85-17.188,62.563-27.061,98.582-27.061c36.018,0,69.731,9.873,98.582,27.061
			c9.473,5.642,18.419,12.073,26.756,19.198C446.679,165.773,472.898,218.347,472.898,277.037z"/>
		<g>
			<path style="fill:none;stroke:#8FC93A;stroke-width:2.1998;stroke-miterlimit:10;" d="M49.658,183.673
				c4.805,0,4.805,6.356,9.61,6.356c4.801,0,4.801-6.356,9.602-6.356c4.803,0,4.803,6.356,9.606,6.356
				c4.805,0,4.805-6.356,9.611-6.356c4.805,0,4.805,6.356,9.611,6.356c4.805,0,4.805-6.356,9.611-6.356
				c4.807,0,4.807,6.356,9.613,6.356c4.804,0,4.804-6.356,9.608-6.356c4.808,0,4.808,6.356,9.616,6.356
				c4.812,0,4.812-6.356,9.623-6.356c4.812,0,4.812,6.356,9.623,6.356"/>
			<path style="fill:none;stroke:#8FC93A;stroke-width:2.1998;stroke-miterlimit:10;" d="M49.658,198.421
				c4.805,0,4.805,6.356,9.61,6.356c4.801,0,4.801-6.356,9.602-6.356c4.803,0,4.803,6.356,9.606,6.356
				c4.805,0,4.805-6.356,9.611-6.356c4.805,0,4.805,6.356,9.611,6.356c4.805,0,4.805-6.356,9.611-6.356
				c4.807,0,4.807,6.356,9.613,6.356c4.804,0,4.804-6.356,9.608-6.356c4.808,0,4.808,6.356,9.616,6.356
				c4.812,0,4.812-6.356,9.623-6.356c4.812,0,4.812,6.356,9.623,6.356"/>
			<path style="fill:none;stroke:#8FC93A;stroke-width:2.1998;stroke-miterlimit:10;" d="M49.658,213.17
				c4.805,0,4.805,6.356,9.61,6.356c4.801,0,4.801-6.356,9.602-6.356c4.803,0,4.803,6.356,9.606,6.356
				c4.805,0,4.805-6.356,9.611-6.356c4.805,0,4.805,6.356,9.611,6.356c4.805,0,4.805-6.356,9.611-6.356
				c4.807,0,4.807,6.356,9.613,6.356c4.804,0,4.804-6.356,9.608-6.356c4.808,0,4.808,6.356,9.616,6.356
				c4.812,0,4.812-6.356,9.623-6.356c4.812,0,4.812,6.356,9.623,6.356"/>
		</g>
		
			<polyline style="fill:none;stroke:#FE0089;stroke-width:1.5788;stroke-linecap:round;stroke-linejoin:round;stroke-miterlimit:10;" points="
			214.228,123.159 202.927,123.159 202.927,262.818 216.701,262.818 		"/>
		
			<polyline style="fill:none;stroke:#FE0089;stroke-width:1.5788;stroke-linecap:round;stroke-linejoin:round;stroke-miterlimit:10;" points="
			373.461,123.159 384.762,123.159 384.762,262.818 370.987,262.818 		"/>
		<path style="fill:#ABD4EF;" d="M215.571,364.062c0,14.725-3.379,28.661-9.399,41.07c-0.537,1.105-1.095,2.21-1.674,3.284
			c-0.232,0.432-0.453,0.853-0.695,1.263c-0.463,0.842-0.937,1.673-1.431,2.494c-0.526,0.895-1.074,1.779-1.631,2.652
			c-0.295,0.463-0.6,0.937-0.916,1.389c-0.358,0.547-0.726,1.084-1.105,1.621c-0.621,0.916-1.273,1.81-1.937,2.694
			c-0.011,0.011-0.011,0.011-0.011,0.011c-5.063,6.747-11.01,12.799-17.672,17.978c-0.716,0.558-115.517,0-115.517,0
			c-6.663-5.179-12.62-11.231-17.672-17.978c-11.82-15.736-18.809-35.292-18.809-56.48c0-39.955,24.861-74.099,59.964-87.803
			c10.62-4.158,22.177-6.431,34.271-6.431c1.474,0,2.937,0.032,4.389,0.105c3.989,0.179,7.915,0.611,11.757,1.284
			c0.705,0.116,1.41,0.242,2.116,0.389c0.2,0.032,0.4,0.063,0.589,0.105c4.652,0.947,9.189,2.231,13.557,3.831
			c2.642,0.968,5.221,2.053,7.736,3.242c1.884,0.884,3.737,1.831,5.558,2.842c2.116,1.179,4.189,2.431,6.199,3.768
			c5.621,3.715,10.82,8.02,15.504,12.82c11.231,11.483,19.535,25.83,23.735,41.839C214.498,347.716,215.571,355.768,215.571,364.062
			z"/>
		<g>
			<path style="fill:#7074DD;" d="M242.511,250.392h-17.928c-2.685,0-4.861-2.176-4.861-4.861v-15.108
				c0-2.685,2.176-4.861,4.861-4.861h17.928c2.685,0,4.861,2.176,4.861,4.861v15.108
				C247.372,248.216,245.195,250.392,242.511,250.392z"/>
			<g>
				<path style="fill:#8FC93A;" d="M232.402,236.057c0,2.025-1.641,3.667-3.667,3.667c-2.025,0-3.667-1.642-3.667-3.667
					s1.642-3.667,3.667-3.667C230.76,232.39,232.402,234.032,232.402,236.057z"/>
				<circle style="fill:#D93A86;" cx="233.547" cy="236.057" r="3.667"/>
				<circle style="fill:#A2D8F6;" cx="238.358" cy="236.057" r="3.667"/>
			</g>
			
				<line style="fill:none;stroke:#FFFFFF;stroke-width:1.5788;stroke-linecap:round;stroke-linejoin:round;stroke-miterlimit:10;" x1="237.842" y1="243.911" x2="229.251" y2="243.911"/>
		</g>
		<g>
			<path style="fill:none;stroke:#F2AF00;stroke-width:2.1998;stroke-miterlimit:10;" d="M72.313,269.282
				c0,2.392-1.939,4.332-4.332,4.332c-2.392,0-4.332-1.939-4.332-4.332c0-2.392,1.939-4.332,4.332-4.332
				C70.373,264.95,72.313,266.889,72.313,269.282z"/>
			<circle style="fill:none;stroke:#F2AF00;stroke-width:2.1998;stroke-miterlimit:10;" cx="51.718" cy="245.987" r="7.227"/>
			<g>
				
					<line style="fill:none;stroke:#7074DD;stroke-width:2.2494;stroke-linecap:round;stroke-miterlimit:10;" x1="44.492" y1="283.406" x2="44.492" y2="273.207"/>
				
					<line style="fill:none;stroke:#7074DD;stroke-width:2.2494;stroke-linecap:round;stroke-miterlimit:10;" x1="39.392" y1="278.307" x2="49.591" y2="278.307"/>
			</g>
		</g>
		<g>
			<path style="fill:none;stroke:#D93A86;stroke-width:2.1998;stroke-miterlimit:10;" d="M305.619,94.429
				c0,2.392-1.939,4.332-4.332,4.332c-2.392,0-4.332-1.939-4.332-4.332c0-2.392,1.939-4.332,4.332-4.332
				C303.679,90.098,305.619,92.037,305.619,94.429z"/>
			<circle style="fill:none;stroke:#D93A86;stroke-width:2.1998;stroke-miterlimit:10;" cx="285.024" cy="71.134" r="7.227"/>
			<g>
				
					<line style="fill:none;stroke:#211D4F;stroke-width:2.2494;stroke-linecap:round;stroke-miterlimit:10;" x1="277.797" y1="108.554" x2="277.797" y2="98.355"/>
				
					<line style="fill:none;stroke:#211D4F;stroke-width:2.2494;stroke-linecap:round;stroke-miterlimit:10;" x1="272.698" y1="103.454" x2="282.896" y2="103.454"/>
			</g>
		</g>
		<g>
			<path style="fill:#42BFDD;" d="M129.425,282.248c-23.373,0-47.389-3.113-59.95,45.124c-5.669,21.772-10.042,42.87-13.133,59.468
				c-3.263,17.523,10.177,33.702,28.001,33.702h148.221c0,0-2.371-139.052-50.845-139.052
				C169.703,281.49,129.425,282.248,129.425,282.248z"/>
			<path style="fill:#089DB5;" d="M148.902,291.24c0,0,7.609-16.436,4.538-25.795c0,0,16.472-1.424,20.793,14.522
				C177.54,292.169,148.902,291.24,148.902,291.24z"/>
			<polygon style="fill:#42BFDD;" points="251.16,399.539 219.612,388.122 212.301,420.474 252.684,420.474 			"/>
			<path style="fill:none;stroke:#089DB5;stroke-width:2.1998;stroke-linecap:round;stroke-miterlimit:10;" d="M175.103,281.49
				c0,0,28.72,4.576,28.72,133.339"/>
			<path style="fill:none;stroke:#089DB5;stroke-width:2.1998;stroke-linecap:round;stroke-miterlimit:10;" d="M99.122,284.975
				c0,0,29.663,5.397,3.019,102.384"/>
			<path style="fill:#5283A4;" d="M463.414,429.53c0,4.957-4.021,8.989-8.989,8.989H45.406c-2.484,0-4.726-1-6.357-2.631
				c-1.631-1.632-2.631-3.873-2.631-6.357c0-4.957,4.021-8.989,8.989-8.989h409.02c2.484,0,4.726,1,6.357,2.631
				C462.414,424.804,463.414,427.046,463.414,429.53z"/>
			<linearGradient id="SVGID_1_" gradientUnits="userSpaceOnUse" x1="261.968" y1="169.6978" x2="398.8839" y2="367.0701">
				<stop  offset="0" style="stop-color:#FFFFFF;stop-opacity:0"/>
				<stop  offset="1" style="stop-color:#FFFFFF"/>
			</linearGradient>
			<polygon style="fill:url(#SVGID_1_);" points="440.523,270.887 380.807,32.55 137.487,111.191 137.487,298.712 252.684,362.217 
							"/>
			<path style="fill:#4C4C9E;" d="M249.718,375.018h159.803c3.118,0,5.866-2.05,6.753-5.04l27.947-94.136
				c0.734-2.473-1.119-4.955-3.698-4.955h-160.06c-2.966,0-5.58,1.95-6.424,4.794l-28.02,94.382
				C245.285,372.535,247.138,375.018,249.718,375.018z"/>
			<path style="fill:#211D4F;" d="M255.329,375.018h159.803c3.118,0,5.866-2.05,6.753-5.04l27.947-94.136
				c0.734-2.473-1.119-4.955-3.698-4.955H286.075c-2.966,0-5.58,1.95-6.424,4.794l-28.02,94.382
				C250.897,372.535,252.75,375.018,255.329,375.018z"/>
			<path style="fill:#4C4C9E;" d="M363.264,341.321l21.823,73.509c0.844,2.843-1.286,5.698-4.252,5.698h-18.367l-20.162-67.915
				c-2.563-8.632,3.905-17.298,12.909-17.298l0,0C358.932,335.314,362.207,337.758,363.264,341.321z"/>
			
				<ellipse transform="matrix(0.987 -0.1606 0.1606 0.987 -43.8387 60.2254)" style="fill:#4C4C9E;" cx="350.732" cy="301.37" rx="7.646" ry="7.646"/>
			<path style="fill:#4C4C9E;" d="M324.984,414.829h60.103l0,0c0.844,2.843-1.286,5.698-4.252,5.698h-55.852
				c-1.573,0-2.849-1.275-2.849-2.849l0,0C322.135,416.105,323.411,414.829,324.984,414.829z"/>
			<path style="fill:#EA9D9D;" d="M199.352,232.831c0,0-10.273,57.701-36.623,43.229l-3.876,8.495
				c-1.858,4.072-5.921,6.684-10.397,6.684l0,0c-8.266,0-13.797-8.504-10.448-16.06l25.154-56.739
				C163.163,218.441,205.106,212.229,199.352,232.831z"/>
			<path style="fill:#211D4F;" d="M171.711,247.482c-0.29,1.326-1.091,2.277-1.789,2.124c-0.698-0.153-1.028-1.351-0.738-2.677
				c0.29-1.326,1.091-2.277,1.789-2.125C171.67,244.957,172.001,246.156,171.711,247.482z"/>
			<path style="fill:#211D4F;" d="M190.897,251.509c-0.29,1.326-1.091,2.277-1.789,2.125c-0.698-0.153-1.029-1.351-0.738-2.677
				c0.29-1.326,1.091-2.277,1.789-2.124C190.857,248.984,191.187,250.183,190.897,251.509z"/>
			<path style="fill:none;stroke:#D15957;stroke-width:1.6499;stroke-linecap:round;stroke-miterlimit:10;" d="M180.848,248.306
				c-0.307,3.886-0.614,7.772-0.921,11.658c-0.021,0.27-0.049,0.557-0.211,0.774c-0.293,0.391-0.876,0.385-1.356,0.295
				c-1.29-0.242-2.514-0.824-3.516-1.672"/>
			<g>
				<g>
					<path style="fill:#211D4F;" d="M177.092,239.104c-3.252-2.615-7.206-3.605-11.304-2.791c-1.242,0.247-0.716,2.145,0.523,1.898
						c3.35-0.665,6.723,0.142,9.388,2.285C176.678,241.283,178.08,239.898,177.092,239.104L177.092,239.104z"/>
				</g>
			</g>
			<g>
				<g>
					<path style="fill:#211D4F;" d="M196.935,242.872c-2.598-2.717-7.428-3.365-10.824-1.984c-1.158,0.471-0.652,2.376,0.523,1.899
						c2.769-1.125,6.756-0.773,8.908,1.478C196.42,245.182,197.811,243.789,196.935,242.872L196.935,242.872z"/>
				</g>
			</g>
			<path style="fill:#211D4F;" d="M155.738,239.352c0,0,11.84-5.539,19.782-18.092c0,0,7.687,14.381,25.064,20.565
				c17.377,6.184,26.565-23.436,15.952-27.959c-10.613-4.522-36.973-1.36-36.973-1.36s-11.107-19.816-27.594-5.295
				c-13.296,11.711-2.685,32.726-2.685,32.726L155.738,239.352z"/>
			<path style="fill:#EA9D9D;" d="M148.864,233.833c4.063-0.48,7.746,2.425,8.226,6.488c0.48,4.063-2.425,7.746-6.488,8.226
				c-4.063,0.48-7.746-2.425-8.226-6.488C141.896,237.996,144.801,234.313,148.864,233.833z"/>
			<path style="fill:#A51E3E;" d="M176.953,267.228c0,0-1.726,1.895-3.6,3.168c0,0,0,0,0,0.01c-2.484,1.684-5.252,2.305-4.715-3.905
				c0.074-0.937,0.231-2.021,0.474-3.273L176.953,267.228z"/>
			<path style="fill:none;stroke:#D15957;stroke-width:1.6499;stroke-linecap:round;stroke-miterlimit:10;" d="M162.73,276.06
				c0,0-4.774-2.57-10.762-8.418"/>
			<path style="fill:#089DB5;" d="M148.902,291.24c0,0-15.714-4.693-6.577-25.795c0,0-25.992,2.218-26.77,17.279
				C114.962,294.191,148.902,291.24,148.902,291.24z"/>
			<path style="fill:none;stroke:#089DB5;stroke-width:2.1998;stroke-linecap:round;stroke-miterlimit:10;" d="M81.573,387.36
				c0,0,15.304-5.178,75.419,13.086"/>
			<path style="fill:none;stroke:#089DB5;stroke-width:2.1998;stroke-linecap:round;stroke-miterlimit:10;" d="M219.612,388.121
				c7.099,1.707,17.265,5.265,31.547,12.325"/>
			<g>
				<path style="fill:#EA9D9D;" d="M156.808,399.539l23.907-6.85c2.766-0.792,5.739-0.348,8.153,1.217l22.491,14.59
					c1.347,0.874,1.228,2.884-0.214,3.591l-9.912,4.866c-2.904,1.425-6.279,1.537-9.27,0.307l-12.619-5.19
					c0,0-3.875,8.402-12.837,8.402h-8.174c-5.064-5.391-6.399-14.58-1.897-20.448L156.808,399.539z"/>
				<g>
					
						<line style="fill:none;stroke:#D15957;stroke-width:1.2654;stroke-linecap:round;stroke-miterlimit:10;" x1="210.695" y1="412.309" x2="187.495" y2="397.767"/>
					
						<line style="fill:none;stroke:#D15957;stroke-width:1.2654;stroke-linecap:round;stroke-miterlimit:10;" x1="206.322" y1="414.456" x2="184.976" y2="402.139"/>
					
						<line style="fill:none;stroke:#D15957;stroke-width:1.2654;stroke-linecap:round;stroke-miterlimit:10;" x1="201.232" y1="416.955" x2="182.432" y2="407.053"/>
				</g>
			</g>
			<g>
				<path style="fill:#EA9D9D;" d="M251.16,399.539l23.907-6.85c2.766-0.792,5.739-0.348,8.153,1.217l22.491,14.59
					c1.347,0.874,1.228,2.884-0.214,3.591l-9.912,4.866c-2.903,1.425-6.279,1.537-9.27,0.307l-12.619-5.19
					c0,0-3.875,8.402-12.837,8.402h-8.174c-5.064-5.391-6.399-14.58-1.898-20.448L251.16,399.539z"/>
				<g>
					
						<line style="fill:none;stroke:#D15957;stroke-width:1.2654;stroke-linecap:round;stroke-miterlimit:10;" x1="305.047" y1="412.309" x2="281.847" y2="397.767"/>
					
						<line style="fill:none;stroke:#D15957;stroke-width:1.2654;stroke-linecap:round;stroke-miterlimit:10;" x1="300.674" y1="414.456" x2="279.328" y2="402.139"/>
					
						<line style="fill:none;stroke:#D15957;stroke-width:1.2654;stroke-linecap:round;stroke-miterlimit:10;" x1="295.584" y1="416.955" x2="276.784" y2="407.053"/>
				</g>
			</g>
			<g>
				<path style="fill:#4C4C9E;" d="M167.039,414.829h88.277v5.698h-88.277c-1.506,0-2.726-1.22-2.726-2.726v-0.245
					C164.312,416.05,165.533,414.829,167.039,414.829z"/>
				<path style="fill:#211D4F;" d="M203.824,414.829h110.01c1.506,0,2.726,1.221,2.726,2.726v0.245c0,1.506-1.22,2.726-2.726,2.726
					h-110.01V414.829z"/>
			</g>
			<g>
				<path style="fill:#42BFDD;" d="M138.486,286.136c0,1.169-0.948,2.116-2.116,2.116c-1.169,0-2.116-0.948-2.116-2.116
					c0-1.169,0.947-2.116,2.116-2.116C137.538,284.02,138.486,284.967,138.486,286.136z"/>
				<g>
					<g>
						<path style="fill:#FFFFFF;" d="M135.838,286.219c0.92,8.046,3.082,15.868,4.225,23.876c1.232,8.632,0.96,17.379-0.708,25.932
							c-0.129,0.662,0.885,0.945,1.015,0.28c1.57-8.052,1.96-16.287,0.98-24.44c-1.037-8.627-3.472-17.013-4.459-25.648
							C136.815,285.554,135.761,285.546,135.838,286.219L135.838,286.219z"/>
					</g>
				</g>
				<path style="fill:#FFFFFF;" d="M142.082,331.498c0,0.762-0.617,1.379-1.379,1.379c-0.762,0-1.379-0.617-1.379-1.379
					c0-0.762,0.617-1.379,1.379-1.379C141.465,330.118,142.082,330.736,142.082,331.498z"/>
			</g>
			<g>
				<path style="fill:#42BFDD;" d="M164.63,286.136c0,1.169-0.948,2.116-2.116,2.116c-1.169,0-2.116-0.948-2.116-2.116
					c0-1.169,0.947-2.116,2.116-2.116C163.683,284.02,164.63,284.967,164.63,286.136z"/>
				<g>
					<g>
						<path style="fill:#FFFFFF;" d="M161.983,286.219c0.92,8.046,3.082,15.868,4.225,23.876c1.232,8.632,0.96,17.379-0.708,25.932
							c-0.129,0.662,0.885,0.945,1.015,0.28c1.57-8.052,1.96-16.287,0.98-24.44c-1.037-8.627-3.472-17.013-4.459-25.648
							C162.959,285.554,161.906,285.546,161.983,286.219L161.983,286.219z"/>
					</g>
				</g>
				<path style="fill:#FFFFFF;" d="M168.227,331.498c0,0.762-0.618,1.379-1.379,1.379c-0.762,0-1.379-0.617-1.379-1.379
					c0-0.762,0.618-1.379,1.379-1.379C167.609,330.118,168.227,330.736,168.227,331.498z"/>
			</g>
			<path style="fill:#211D4F;" d="M137.49,254.225c0.033,0.579,0.336,0.937,1.04,0.931c0.929-0.008,1.722-0.636,2.434-1.232
				c1.071-0.896,2.141-1.791,3.212-2.687c-0.604,1.878-0.939,3.842-0.994,5.814c-0.017,0.602,0.002,1.238,0.32,1.75
				c1.845,2.968,6.723-7.841,7.116-9.335c0.404-1.536,0.57-3.358-0.491-4.54c-2.855-3.184-6.142-1.655-8.51,1.192
				C140.954,246.919,137.367,252.082,137.49,254.225z"/>
			<path style="fill:#5D5DBA;" d="M156.452,226.771c0,0,9.599-17.435,23.111-14.264l6.811-0.622c0,0-7.248-7.785-17.918-3.636
				c-10.67,4.149-16.487,15.061-16.487,15.061L156.452,226.771z"/>
			<g>
				<g>
					<path style="fill:#5D5DBA;" d="M160.046,241.643c-2.924,7.07-9.997,10.856-15.797,8.457c-5.8-2.399-8.131-10.076-5.207-17.145
						c2.925-7.07,9.997-10.856,15.797-8.457C160.639,226.896,162.97,234.573,160.046,241.643z"/>
					
						<rect x="133.333" y="233.772" transform="matrix(0.3822 -0.9241 0.9241 0.3822 -127.4516 282.0028)" style="fill:#5D5DBA;" width="27.707" height="5.103"/>
				</g>
				<path style="fill:#4C4C9E;" d="M155.96,239.906c-2.901,7.08-9.961,10.89-15.769,8.51c-5.808-2.38-9.691-10.667-6.79-17.747
					c2.901-7.08,11.487-10.271,17.295-7.891C156.505,225.157,158.861,232.826,155.96,239.906z"/>
			</g>
			<g>
				<path style="fill:none;stroke:#7074DD;stroke-width:2.2494;stroke-linecap:round;stroke-miterlimit:10;" d="M150.602,248.547
					c0,0-0.548,12.027,9.796,16.403"/>
				<g>
					<g>
						<path style="fill:#7074DD;" d="M160.847,267.632c0.099,0,0.197,0,0.296,0c1.376,0,2.695-1.21,2.631-2.631
							c-0.064-1.426-1.156-2.631-2.631-2.631c-0.099,0-0.198,0-0.296,0c-1.376,0-2.695,1.21-2.631,2.631
							C158.279,266.426,159.371,267.632,160.847,267.632L160.847,267.632z"/>
					</g>
				</g>
			</g>
			<path style="fill:#DB4562;" d="M173.354,270.396c0,0,0,0,0,0.01c-2.484,1.684-5.252,2.305-4.715-3.905
				c0.126-0.021,0.242-0.021,0.368-0.021C171.259,266.48,173.122,268.196,173.354,270.396z"/>
		</g>
		
			<path style="fill:none;stroke:#FE0089;stroke-width:1.5788;stroke-linecap:round;stroke-linejoin:round;stroke-miterlimit:10;" d="
			M330.7,202.275c-0.438,1.769-0.674,3.618-0.674,5.522c0,1.904,0.236,3.753,0.674,5.523"/>
		<g>
			<g>
				<g>
					
						<polyline style="fill:none;stroke:#FFFFFF;stroke-width:1.5788;stroke-linecap:round;stroke-linejoin:round;stroke-miterlimit:10;" points="
						362.056,134.221 368.41,134.221 368.41,161.653 360.666,161.653 					"/>
					
						<polyline style="fill:none;stroke:#FFFFFF;stroke-width:1.5788;stroke-linecap:round;stroke-linejoin:round;stroke-miterlimit:10;" points="
						343.867,134.221 337.513,134.221 337.513,161.653 345.258,161.653 					"/>
				</g>
				
					<ellipse transform="matrix(0.6082 -0.7938 0.7938 0.6082 20.8699 338.1538)" style="fill:#FE0089;" cx="352.962" cy="147.937" rx="8.232" ry="8.232"/>
				<circle style="fill:#211D4F;" cx="352.962" cy="147.937" r="2.805"/>
			</g>
			<rect x="337.513" y="168.961" style="fill:#FFFFFF;" width="30.897" height="3.845"/>
			<rect x="337.513" y="247.91" style="fill:#FFFFFF;" width="30.897" height="3.845"/>
			<g>
				<path style="fill:#211D4F;" d="M336.451,229.073h33.017c1.296,0,2.346,1.051,2.346,2.346l0,0c0,1.296-1.051,2.346-2.346,2.346
					h-33.017c-1.296,0-2.346-1.051-2.346-2.346l0,0C334.105,230.124,335.156,229.073,336.451,229.073z"/>
				<path style="fill:#8FC93A;" d="M337.171,230.468h23.331c0.526,0,0.952,0.426,0.952,0.952l0,0c0,0.525-0.426,0.951-0.952,0.951
					h-23.331c-0.525,0-0.952-0.426-0.952-0.951l0,0C336.22,230.894,336.646,230.468,337.171,230.468z"/>
			</g>
			<g>
				<path style="fill:#211D4F;" d="M336.451,236.974h33.017c1.296,0,2.346,1.051,2.346,2.346l0,0c0,1.296-1.051,2.346-2.346,2.346
					h-33.017c-1.296,0-2.346-1.05-2.346-2.346l0,0C334.105,238.024,335.156,236.974,336.451,236.974z"/>
				<path style="fill:#FE0089;" d="M337.171,238.368h13.363c0.525,0,0.951,0.426,0.951,0.952l0,0c0,0.525-0.426,0.952-0.951,0.952
					h-13.363c-0.525,0-0.952-0.426-0.952-0.952l0,0C336.22,238.794,336.646,238.368,337.171,238.368z"/>
			</g>
			<rect x="337.513" y="177.746" style="fill:#FFFFFF;" width="15.449" height="3.845"/>
			
				<path style="fill:none;stroke:#FE0089;stroke-width:1.5788;stroke-linecap:round;stroke-linejoin:round;stroke-miterlimit:10;" d="
				M369.304,216.885c1.704-2.852,2.701-6.175,2.701-9.739c0-3.564-0.997-6.887-2.701-9.739"/>
			
				<path style="fill:none;stroke:#FE0089;stroke-width:1.5788;stroke-linecap:round;stroke-linejoin:round;stroke-miterlimit:10;" d="
				M336.6,197.407c-0.19,0.319-0.376,0.642-0.548,0.972c-1.363,2.624-2.134,5.605-2.134,8.767c0,3.564,0.997,6.887,2.701,9.739"/>
			
				<path style="fill:none;stroke:#FE0089;stroke-width:1.5788;stroke-linecap:round;stroke-linejoin:round;stroke-miterlimit:10;" d="
				M375.223,212.669c0.438-1.769,0.674-3.618,0.674-5.523c0-1.904-0.236-3.753-0.674-5.522"/>
			<g>
				<path style="fill:#7074DD;" d="M368.411,207.15c0,5.136-2.505,9.683-6.368,12.483c-2.547,1.863-5.684,2.958-9.083,2.958
					c-3.389,0-6.536-1.095-9.083-2.958c-3.863-2.8-6.368-7.347-6.368-12.483c0-8.536,6.926-15.452,15.451-15.452
					C361.496,191.698,368.411,198.613,368.411,207.15z"/>
				<g>
					<path style="fill:#211D4F;" d="M357.879,203.895c0,2.716-2.202,4.918-4.918,4.918c-2.716,0-4.918-2.202-4.918-4.918
						c0-2.716,2.202-4.918,4.918-4.918C355.678,198.977,357.879,201.179,357.879,203.895z"/>
					<path style="fill:#211D4F;" d="M362.18,218.033c0,0.547-0.053,1.084-0.137,1.6c-2.547,1.863-5.684,2.958-9.083,2.958
						c-3.389,0-6.536-1.095-9.083-2.958c-0.084-0.516-0.137-1.053-0.137-1.6c0-5.094,4.126-9.22,9.22-9.22
						S362.18,212.939,362.18,218.033z"/>
				</g>
			</g>
		</g>
		<g>
			<path style="opacity:0.5;fill:#FFFFFF;" d="M319.245,257.205H266.28c-2.679,0-4.851-2.172-4.851-4.851V133.623
				c0-2.679,2.172-4.851,4.851-4.851h52.965c2.679,0,4.851,2.172,4.851,4.851v118.731
				C324.095,255.033,321.924,257.205,319.245,257.205z"/>
			<rect x="268.989" y="230.499" style="fill:#7074DD;" width="30.897" height="7.512"/>
			<rect x="268.989" y="242.46" style="fill:#F76A99;" width="18.065" height="7.512"/>
			<g>
				<g>
					<path style="fill:#8FC93A;" d="M288.18,147.754c0,3.19-1.556,6.014-3.955,7.752c-1.582,1.157-3.53,1.837-5.641,1.837
						c-2.105,0-4.059-0.68-5.641-1.837c-2.399-1.739-3.955-4.563-3.955-7.752c0-5.301,4.301-9.596,9.596-9.596
						C283.886,138.158,288.18,142.452,288.18,147.754z"/>
					<g>
						<circle style="fill:#211D4F;" cx="278.585" cy="145.732" r="3.054"/>
						<path style="fill:#211D4F;" d="M284.311,154.512c0,0.34-0.033,0.673-0.085,0.994c-1.582,1.157-3.53,1.837-5.641,1.837
							c-2.105,0-4.059-0.68-5.641-1.837c-0.052-0.32-0.085-0.654-0.085-0.994c0-3.164,2.562-5.726,5.726-5.726
							C281.748,148.786,284.311,151.349,284.311,154.512z"/>
					</g>
				</g>
				<g>
					
						<line style="fill:none;stroke:#211D4F;stroke-width:1.5788;stroke-linecap:round;stroke-linejoin:round;stroke-miterlimit:10;" x1="295.293" y1="144.696" x2="318.211" y2="144.696"/>
					
						<line style="fill:none;stroke:#211D4F;stroke-width:1.5788;stroke-linecap:round;stroke-linejoin:round;stroke-miterlimit:10;" x1="295.293" y1="150.804" x2="306.752" y2="150.804"/>
				</g>
			</g>
			<g>
				<g>
					<path style="fill:#F76A99;" d="M288.18,179.485c0,3.19-1.556,6.014-3.955,7.752c-1.582,1.157-3.53,1.837-5.641,1.837
						c-2.105,0-4.059-0.68-5.641-1.837c-2.399-1.739-3.955-4.563-3.955-7.752c0-5.301,4.301-9.596,9.596-9.596
						C283.886,169.889,288.18,174.184,288.18,179.485z"/>
					<g>
						<path style="fill:#211D4F;" d="M281.64,177.464c0,1.687-1.367,3.054-3.054,3.054s-3.054-1.367-3.054-3.054
							c0-1.687,1.367-3.054,3.054-3.054S281.64,175.777,281.64,177.464z"/>
						<path style="fill:#211D4F;" d="M284.311,186.244c0,0.34-0.033,0.673-0.085,0.993c-1.582,1.157-3.53,1.837-5.641,1.837
							c-2.105,0-4.059-0.68-5.641-1.837c-0.052-0.32-0.085-0.654-0.085-0.993c0-3.164,2.562-5.726,5.726-5.726
							C281.748,180.518,284.311,183.08,284.311,186.244z"/>
					</g>
				</g>
				<g>
					
						<line style="fill:none;stroke:#211D4F;stroke-width:1.5788;stroke-linecap:round;stroke-linejoin:round;stroke-miterlimit:10;" x1="295.293" y1="176.428" x2="318.211" y2="176.428"/>
					
						<line style="fill:none;stroke:#211D4F;stroke-width:1.5788;stroke-linecap:round;stroke-linejoin:round;stroke-miterlimit:10;" x1="295.293" y1="182.536" x2="306.752" y2="182.536"/>
				</g>
			</g>
			<g>
				<g>
					<path style="fill:#FFD639;" d="M288.18,211.217c0,3.19-1.556,6.014-3.955,7.752c-1.582,1.157-3.53,1.837-5.641,1.837
						c-2.105,0-4.059-0.68-5.641-1.837c-2.399-1.739-3.955-4.563-3.955-7.752c0-5.301,4.301-9.596,9.596-9.596
						C283.886,201.621,288.18,205.916,288.18,211.217z"/>
					<g>
						<path style="fill:#211D4F;" d="M281.64,209.196c0,1.687-1.367,3.054-3.054,3.054s-3.054-1.367-3.054-3.054
							c0-1.687,1.367-3.054,3.054-3.054S281.64,207.509,281.64,209.196z"/>
						<path style="fill:#211D4F;" d="M284.311,217.976c0,0.34-0.033,0.673-0.085,0.994c-1.582,1.157-3.53,1.837-5.641,1.837
							c-2.105,0-4.059-0.68-5.641-1.837c-0.052-0.32-0.085-0.654-0.085-0.994c0-3.164,2.562-5.726,5.726-5.726
							C281.748,212.25,284.311,214.812,284.311,217.976z"/>
					</g>
				</g>
				<g>
					
						<line style="fill:none;stroke:#211D4F;stroke-width:1.5788;stroke-linecap:round;stroke-linejoin:round;stroke-miterlimit:10;" x1="295.293" y1="208.16" x2="318.211" y2="208.16"/>
					
						<line style="fill:none;stroke:#211D4F;stroke-width:1.5788;stroke-linecap:round;stroke-linejoin:round;stroke-miterlimit:10;" x1="295.293" y1="214.268" x2="306.752" y2="214.268"/>
				</g>
			</g>
			<rect x="304.756" y="230.499" style="fill:#8FC93A;" width="7.512" height="7.512"/>
		</g>
		<path style="fill:#211D4F;" d="M220.983,160.572h22.107c2.365,0,4.282-1.917,4.282-4.282v-12.641c0-2.365-1.917-4.282-4.282-4.282
			h-22.107c-2.365,0-4.282,1.917-4.282,4.282v12.641C216.701,158.654,218.618,160.572,220.983,160.572z"/>
		<g>
			<path style="fill:#FFFFFF;" d="M225.357,149.969c0,0.792-0.642,1.434-1.434,1.434c-0.792,0-1.434-0.642-1.434-1.434
				c0-0.792,0.642-1.434,1.434-1.434C224.715,148.535,225.357,149.177,225.357,149.969z"/>
			<path style="fill:#FFFFFF;" d="M233.47,149.969c0,0.792-0.642,1.434-1.434,1.434c-0.792,0-1.434-0.642-1.434-1.434
				c0-0.792,0.642-1.434,1.434-1.434C232.828,148.535,233.47,149.177,233.47,149.969z"/>
			<path style="fill:#FFFFFF;" d="M241.584,149.969c0,0.792-0.642,1.434-1.434,1.434c-0.792,0-1.434-0.642-1.434-1.434
				c0-0.792,0.642-1.434,1.434-1.434C240.942,148.535,241.584,149.177,241.584,149.969z"/>
		</g>
		<path style="fill:#211D4F;" d="M222.96,158.609c0,0-0.219,6.223-6.259,8.15c0,0,9.547,0.004,10.981-8.15H222.96z"/>
		<g>
			<path style="fill:#FFFFFF;" d="M243.09,185.201h-12.982c-2.365,0-4.282-1.917-4.282-4.282v-6.333
				c0-2.365,1.917-4.282,4.282-4.282h12.982c2.365,0,4.282,1.917,4.282,4.282v6.333C247.372,183.284,245.455,185.201,243.09,185.201
				z"/>
			<g>
				<path style="fill:#211D4F;" d="M241.292,177.753c0,0.556,0.451,1.007,1.007,1.007s1.007-0.451,1.007-1.007
					s-0.451-1.007-1.007-1.007S241.292,177.197,241.292,177.753z"/>
				<path style="fill:#211D4F;" d="M235.592,177.753c0,0.556,0.451,1.007,1.007,1.007s1.007-0.451,1.007-1.007
					s-0.451-1.007-1.007-1.007S235.592,177.197,235.592,177.753z"/>
				<path style="fill:#211D4F;" d="M229.892,177.753c0,0.556,0.451,1.007,1.007,1.007s1.007-0.451,1.007-1.007
					s-0.451-1.007-1.007-1.007S229.892,177.197,229.892,177.753z"/>
			</g>
			<path style="fill:#FFFFFF;" d="M242.975,183.823c0,0,0.154,4.372,4.397,5.725c0,0-6.707,0.003-7.714-5.725H242.975z"/>
		</g>
		<g>
			<path style="fill:#FFFFFF;" d="M243.09,209.311h-19.297c-2.365,0-4.282-1.917-4.282-4.282v-6.333
				c0-2.365,1.917-4.282,4.282-4.282h19.297c2.365,0,4.282,1.917,4.282,4.282v6.333C247.372,207.394,245.455,209.311,243.09,209.311
				z"/>
			<g>
				<path style="fill:#211D4F;" d="M241.292,201.863c0,0.556,0.451,1.007,1.007,1.007s1.007-0.451,1.007-1.007
					c0-0.556-0.451-1.007-1.007-1.007S241.292,201.307,241.292,201.863z"/>
				<path style="fill:#211D4F;" d="M235.592,201.863c0,0.556,0.451,1.007,1.007,1.007s1.007-0.451,1.007-1.007
					c0-0.556-0.451-1.007-1.007-1.007S235.592,201.307,235.592,201.863z"/>
				<path style="fill:#211D4F;" d="M229.892,201.863c0,0.556,0.451,1.007,1.007,1.007s1.007-0.451,1.007-1.007
					c0-0.556-0.451-1.007-1.007-1.007S229.892,201.307,229.892,201.863z"/>
				<path style="fill:#211D4F;" d="M224.193,201.863c0,0.556,0.451,1.007,1.007,1.007s1.007-0.451,1.007-1.007
					c0-0.556-0.451-1.007-1.007-1.007S224.193,201.307,224.193,201.863z"/>
			</g>
			<path style="fill:#FFFFFF;" d="M242.975,207.933c0,0,0.154,4.372,4.397,5.725c0,0-6.707,0.003-7.714-5.725H242.975z"/>
		</g>
		
			<ellipse transform="matrix(0.922 -0.3872 0.3872 0.922 -42.551 73.1045)" style="fill:#211D4F;" cx="160.184" cy="142.172" rx="19.014" ry="19.014"/>
		<g>
			
				<path style="fill:none;stroke:#FFFFFF;stroke-width:1.5788;stroke-linecap:round;stroke-linejoin:round;stroke-miterlimit:10;" d="
				M164.503,142.173c0,2.385-1.933,4.318-4.318,4.318c-2.385,0-4.318-1.933-4.318-4.318s1.933-4.318,4.318-4.318
				C162.569,137.854,164.503,139.788,164.503,142.173z"/>
			
				<path style="fill:none;stroke:#FFFFFF;stroke-width:1.5788;stroke-linecap:round;stroke-linejoin:round;stroke-miterlimit:10;" d="
				M167.75,142.172c0-0.352-0.057-0.688-0.104-1.028l1.662-0.919c-0.052-0.936-0.275-1.85-0.738-2.689
				c-0.463-0.839-1.119-1.513-1.884-2.055l-1.663,0.919c-0.634-0.532-1.342-0.97-2.128-1.272v-1.884
				c-0.844-0.407-1.752-0.655-2.71-0.655c-0.958,0-1.866,0.248-2.71,0.655v1.884c-0.785,0.303-1.493,0.74-2.127,1.272l-1.664-0.92
				c-0.765,0.542-1.421,1.217-1.884,2.055c-0.463,0.838-0.686,1.753-0.738,2.689l1.663,0.92c-0.047,0.339-0.104,0.675-0.104,1.027
				c0,0.352,0.057,0.688,0.104,1.027l-1.663,0.919c0.052,0.936,0.274,1.85,0.738,2.689c0.464,0.839,1.119,1.513,1.884,2.055
				l1.665-0.92c0.633,0.532,1.341,0.97,2.127,1.272v1.884c0.844,0.407,1.752,0.655,2.71,0.655c0.958,0,1.866-0.248,2.71-0.655
				v-1.884c0.786-0.303,1.494-0.74,2.128-1.272l1.663,0.919c0.765-0.542,1.421-1.217,1.884-2.055
				c0.463-0.838,0.686-1.753,0.738-2.689l-1.662-0.919C167.693,142.861,167.75,142.524,167.75,142.172z"/>
		</g>
		<path style="fill:none;stroke:#EB8EB9;stroke-width:2.1998;stroke-miterlimit:10;" d="M403.693,241.518
			c3.326,0,3.326-4.4,6.653-4.4c3.327,0,3.327,4.4,6.655,4.4c3.325,0,3.325-4.4,6.651-4.4c3.328,0,3.328,4.4,6.657,4.4
			c3.331,0,3.331-4.4,6.661-4.4c3.331,0,3.331,4.4,6.661,4.4"/>
		<path style="fill:none;stroke:#EB8EB9;stroke-width:2.1998;stroke-miterlimit:10;" d="M403.693,252.406
			c3.326,0,3.326-4.4,6.653-4.4c3.327,0,3.327,4.4,6.655,4.4c3.325,0,3.325-4.4,6.651-4.4c3.328,0,3.328,4.4,6.657,4.4
			c3.331,0,3.331-4.4,6.661-4.4c3.331,0,3.331,4.4,6.661,4.4"/>
		<path style="fill:none;stroke:#F2AF00;stroke-width:2.1998;stroke-miterlimit:10;" d="M422.732,219.655
			c0,2.392-1.939,4.332-4.332,4.332c-2.392,0-4.332-1.939-4.332-4.332c0-2.392,1.939-4.332,4.332-4.332
			C420.792,215.323,422.732,217.263,422.732,219.655z"/>
		<g>
			
				<line style="fill:none;stroke:#7074DD;stroke-width:2.2494;stroke-linecap:round;stroke-miterlimit:10;" x1="439.819" y1="209.852" x2="439.819" y2="199.654"/>
			
				<line style="fill:none;stroke:#7074DD;stroke-width:2.2494;stroke-linecap:round;stroke-miterlimit:10;" x1="434.72" y1="204.753" x2="444.918" y2="204.753"/>
		</g>
		
			<polygon style="fill:none;stroke:#FE0089;stroke-width:2.1051;stroke-linecap:round;stroke-linejoin:round;stroke-miterlimit:10;" points="
			180.848,180.278 174.98,168.542 186.716,168.542 		"/>
		
			<polygon style="fill:none;stroke:#8FC93A;stroke-width:2.1051;stroke-linecap:round;stroke-linejoin:round;stroke-miterlimit:10;" points="
			403.693,190.664 397.825,178.928 409.561,178.928 		"/>
		
			<polygon style="fill:none;stroke:#F2AF00;stroke-width:2.1051;stroke-linecap:round;stroke-linejoin:round;stroke-miterlimit:10;" points="
			403.693,154.703 409.561,166.44 397.825,166.44 		"/>
	</g>
</g>
</svg>
