<?xml version="1.0" encoding="utf-8"?>
<!-- Generator: Adobe Illustrator 27.5.0, SVG Export Plug-In . SVG Version: 6.00 Build 0)  -->
<svg version="1.1" id="Layer_1" xmlns="http://www.w3.org/2000/svg" xmlns:xlink="http://www.w3.org/1999/xlink" x="0px" y="0px"
	 viewBox="0 0 600 500" style="enable-background:new 0 0 600 500;" xml:space="preserve">
<g id="XMLID_891_">
	<path id="XMLID_1174_" style="fill:#F2F1F7;" d="M192.836,111.955C55.229,192.759,42.297,247.276,69.364,322.186
		c37.81,104.645,33.221,140.858,173.538,117.606c140.459-23.276,260.969,32.81,268.055-52.215
		c8.472-101.664,38.383-119.393,29.597-167.715c-8.786-48.322-72.691-60.212-124.778-86.57
		C363.688,106.935,300.775,48.572,192.836,111.955z"/>
	<g id="XMLID_587_">
		<g id="XMLID_593_">
			<path id="XMLID_613_" style="fill:#76A699;" d="M151.991,301.972c-4.446-6.916-16.672-28.897-8.398-43.964
				c8.274-15.066,22.476-8.398,24.575-2.964c2.099,5.434,1.111,13.955-6.175,25.563
				C154.708,292.216,151.991,301.972,151.991,301.972z"/>
			<path id="XMLID_611_" style="fill:#58857A;" d="M154.338,320.125c-5.804-7.41-21.951-17.243-28.867-6.869
				c-6.916,10.373-0.008,17.59,4.662,17.366c6.452-0.309,15.066-8.274,19.882-7.78c4.816,0.494,8.398,4.816,8.274,5.187
				C158.166,328.399,154.338,320.125,154.338,320.125z"/>
			<path id="XMLID_610_" style="fill:#58857A;" d="M178.913,364.213c-5.465-9.818-14.078-37.789,2.038-50.015
				c16.116-12.226,24.359,1.389,22.044,8.336c-2.315,6.947-20.839,25.285-22.507,31.398
				C178.82,360.045,178.913,364.213,178.913,364.213z"/>
			<path id="XMLID_608_" style="fill:#76A699;" d="M161.5,336.797c-4.322-17.783-4.322-43.593,13.337-55.078
				c17.66-11.485,28.527,8.768,17.166,20.624c-11.361,11.855-22.846,15.19-26.675,22.229C161.5,331.61,161.5,336.797,161.5,336.797z
				"/>
			<path id="XMLID_607_" style="fill:#76A699;" d="M154.461,320.496c-4.075-9.015-3.952-19.883-18.154-29.268
				s-26.057-8.397-24.205,5.804c1.852,14.202,21.117,14.202,29.144,17.166S154.461,320.496,154.461,320.496z"/>
			<path id="XMLID_606_" style="fill:#76A699;" d="M179.16,365.571c-1.235-13.214-1.976-39.024,12.473-46.31
				c14.449-7.286,22.476-1.605,23.464,6.792c0.988,8.398-1.111,15.19-16.054,22.105C184.1,355.074,179.16,365.571,179.16,365.571z"
				/>
			<g id="XMLID_604_">
				<path style="fill:#9FC7BD;" d="M179.284,367.354c-0.108,0-0.215-0.048-0.286-0.139c-0.106-0.136-10.708-13.843-20.981-38.242
					c-10.218-24.268-8.128-55.554-1.862-74.352c0.064-0.19,0.268-0.292,0.459-0.229c0.19,0.063,0.293,0.269,0.23,0.459
					c-6.225,18.673-8.303,49.745,1.843,73.841c10.232,24.303,20.778,37.941,20.883,38.077c0.123,0.158,0.095,0.386-0.063,0.509
					C179.441,367.328,179.362,367.354,179.284,367.354z"/>
			</g>
			<g id="XMLID_603_">
				<path style="fill:#9FC7BD;" d="M161.129,335.431c-0.182,0-0.34-0.138-0.36-0.324c-0.404-3.695,0.296-12.708,3.88-22.394
					c2.933-7.927,8.682-18.51,19.411-23.909c0.177-0.09,0.397-0.018,0.487,0.161c0.09,0.179,0.018,0.398-0.161,0.488
					c-19.818,9.971-23.643,38.74-22.896,45.576c0.022,0.199-0.122,0.378-0.321,0.4C161.156,335.43,161.143,335.431,161.129,335.431z
					"/>
			</g>
			<g id="XMLID_602_">
				<path style="fill:#9FC7BD;" d="M152.239,316.042c-0.121,0-0.24-0.061-0.308-0.172c-6.316-10.155-21.905-18.543-25.701-19.348
					c-0.196-0.041-0.321-0.234-0.28-0.43c0.042-0.195,0.231-0.321,0.43-0.28c3.868,0.82,19.747,9.353,26.166,19.675
					c0.106,0.17,0.054,0.393-0.116,0.5C152.37,316.025,152.304,316.042,152.239,316.042z"/>
			</g>
			<g id="XMLID_601_">
				<path style="fill:#9FC7BD;" d="M178.913,364.576c-0.232-0.02-0.38-0.196-0.362-0.396c1.396-15.468,10.074-33.481,23.96-37.978
					c0.193-0.061,0.395,0.043,0.457,0.234c0.062,0.19-0.043,0.395-0.233,0.457c-13.587,4.4-22.087,22.121-23.461,37.353
					C179.257,364.434,179.099,364.576,178.913,364.576z"/>
			</g>
			<path id="XMLID_600_" style="fill:#76A699;" d="M174.591,359.767c-6.298-9.509-25.687-28.157-42.729-18.648
				c-17.042,9.509-1.852,22.476,11.608,22.352c13.461-0.123,32.232,0.494,34.949,3.087L174.591,359.767z"/>
			<g id="XMLID_599_">
				<path style="fill:#9FC7BD;" d="M176.937,364.576c-0.094,0-0.187-0.036-0.258-0.108c-7.975-8.098-27.879-17.287-38.101-15.949
					c-0.199,0.026-0.381-0.114-0.407-0.312c-0.026-0.198,0.114-0.381,0.313-0.406c10.399-1.37,30.625,7.948,38.712,16.159
					c0.141,0.143,0.139,0.373-0.004,0.513C177.121,364.54,177.029,364.576,176.937,364.576z"/>
			</g>
			<g id="XMLID_597_">
				<path style="fill:#9FC7BD;" d="M152.702,272.773c-0.144,0-0.281-0.087-0.337-0.229c-0.074-0.186,0.017-0.397,0.204-0.471
					c9.965-3.95,11.802-11.977,11.82-12.057c0.042-0.195,0.233-0.321,0.431-0.278c0.196,0.042,0.32,0.234,0.279,0.43
					c-0.018,0.084-1.92,8.481-12.262,12.58C152.791,272.765,152.746,272.773,152.702,272.773z"/>
			</g>
			<g id="XMLID_596_">
				<path style="fill:#9FC7BD;" d="M166.409,309.636c-0.184,0-0.341-0.139-0.36-0.326c-0.021-0.199,0.124-0.377,0.323-0.398
					c4.075-0.425,13.515-3.513,16.867-8.727c0.109-0.169,0.334-0.216,0.501-0.109c0.169,0.108,0.217,0.333,0.109,0.501
					c-3.484,5.419-13.21,8.619-17.402,9.056C166.434,309.635,166.422,309.636,166.409,309.636z"/>
			</g>
			<g id="XMLID_595_">
				<path style="fill:#9FC7BD;" d="M148.246,356.696c-0.424,0-0.686-0.008-0.743-0.009c-0.2-0.007-0.357-0.174-0.351-0.374
					c0.006-0.2,0.174-0.34,0.374-0.351c0.085,0.005,8.49,0.241,13.714-2.461c0.178-0.092,0.397-0.022,0.489,0.156
					c0.092,0.178,0.022,0.397-0.156,0.489C157.048,356.487,150.456,356.696,148.246,356.696z"/>
			</g>
			<g id="XMLID_594_">
				<path style="fill:#76A699;" d="M154.646,322.788c-0.097,0-0.194-0.039-0.265-0.116c-5.168-5.529-16.96-6.267-24.267-1.518
					c-0.169,0.11-0.393,0.062-0.502-0.106c-0.109-0.168-0.062-0.393,0.106-0.502c7.569-4.92,19.811-4.127,25.192,1.631
					c0.137,0.146,0.129,0.376-0.017,0.513C154.824,322.755,154.735,322.788,154.646,322.788z"/>
			</g>
		</g>
	</g>
	<g id="XMLID_534_">
		<g id="XMLID_568_">
			<g id="XMLID_570_">
				<path style="fill:#EFE2D2;" d="M420.311,154.144v195.894c0,10.165-6.053,18.405-13.522,18.408l-226.723,0.065
					c-7.47,0.002-13.526-8.238-13.527-18.404l-0.025-195.959c-0.001-10.167,6.054-18.411,13.525-18.411l226.749,0
					C414.256,135.737,420.311,143.978,420.311,154.144z"/>
				<path style="fill:#E6C1B0;" d="M180.064,369.732c-4.01,0-7.755-2.091-10.546-5.887c-2.708-3.684-4.2-8.564-4.2-13.739
					l-0.026-195.959c-0.001-5.176,1.49-10.056,4.197-13.742c2.791-3.798,6.537-5.891,10.548-5.891h226.748
					c8.131,0,14.745,8.805,14.745,19.628v195.895c0,10.82-6.613,19.626-14.742,19.628l-226.723,0.065
					C180.066,369.732,180.064,369.732,180.064,369.732z M180.038,136.958c-3.214,0-6.262,1.738-8.58,4.895
					c-2.402,3.27-3.724,7.636-3.723,12.296l0.026,195.959c0.001,4.659,1.324,9.024,3.726,12.292
					c2.318,3.154,5.365,4.891,8.578,4.891c0.002,0,226.725-0.065,226.725-0.065c6.783-0.002,12.301-7.712,12.301-17.186V154.144
					c0-9.477-5.52-17.187-12.304-17.187H180.038z"/>
			</g>
			<g id="XMLID_569_">
				<path style="fill:#444244;" d="M420.309,153.861H166.541c0-10.01,5.962-18.125,13.317-18.125h227.135
					C414.347,135.737,420.309,143.852,420.309,153.861L420.309,153.861z"/>
				<path style="fill:#444244;" d="M421.53,155.083H165.32v-1.221c0-10.667,6.521-19.346,14.538-19.346h227.135
					c8.016,0,14.538,8.679,14.538,19.346V155.083z M167.793,152.641h251.264c-0.449-8.753-5.69-15.683-12.065-15.683H179.858
					C173.482,136.958,168.242,143.888,167.793,152.641z"/>
			</g>
		</g>
		<g id="XMLID_564_">
			<path id="XMLID_567_" style="fill:#FEFFFF;" d="M183.671,145.012c0,1.239-1.004,2.243-2.243,2.243
				c-1.239,0-2.243-1.004-2.243-2.243s1.004-2.243,2.243-2.243C182.667,142.769,183.671,143.773,183.671,145.012z"/>
			<path id="XMLID_566_" style="fill:#FEFFFF;" d="M190.676,145.012c0,1.239-1.004,2.243-2.243,2.243s-2.243-1.004-2.243-2.243
				s1.004-2.243,2.243-2.243S190.676,143.773,190.676,145.012z"/>
			<path id="XMLID_565_" style="fill:#FEFFFF;" d="M197.68,145.012c0,1.239-1.004,2.243-2.243,2.243
				c-1.239,0-2.243-1.004-2.243-2.243s1.004-2.243,2.243-2.243C196.676,142.769,197.68,143.773,197.68,145.012z"/>
		</g>
		<g id="XMLID_561_">
			<path id="XMLID_563_" style="fill:#FEFFFF;" d="M351.169,180.171H179.525c-1.752,0-3.172-1.42-3.172-3.172v-0.979
				c0-1.752,1.42-3.172,3.172-3.172h171.644c1.752,0,3.172,1.42,3.172,3.172v0.979C354.342,178.751,352.921,180.171,351.169,180.171
				z"/>
			<path id="XMLID_562_" style="fill:#FEFFFF;" d="M394.342,180.171h-17.894c-1.882,0-3.408-1.526-3.408-3.408v-0.507
				c0-1.882,1.526-3.408,3.408-3.408h17.894c1.882,0,3.408,1.526,3.408,3.408v0.507C397.75,178.645,396.224,180.171,394.342,180.171
				z"/>
		</g>
		<path id="XMLID_477_" style="opacity:0.5;fill:#FEFFFF;" d="M335.438,208.831h-73.959c-1.466,0-2.654-1.188-2.654-2.654v-2.014
			c0-1.466,1.188-2.654,2.654-2.654h73.959c1.466,0,2.654,1.189,2.654,2.654v2.014C338.092,207.642,336.904,208.831,335.438,208.831
			z"/>
		<path id="XMLID_474_" style="opacity:0.5;fill:#FEFFFF;" d="M309.322,234.432h-48.02c-1.368,0-2.477-1.109-2.477-2.477v-2.37
			c0-1.368,1.109-2.477,2.477-2.477h48.02c1.368,0,2.477,1.109,2.477,2.477v2.37C311.798,233.323,310.689,234.432,309.322,234.432z"
			/>
		<path id="XMLID_476_" style="opacity:0.5;fill:#FEFFFF;" d="M367.229,234.432h-48.02c-1.368,0-2.477-1.109-2.477-2.477v-2.37
			c0-1.368,1.109-2.477,2.477-2.477h48.02c1.368,0,2.477,1.109,2.477,2.477v2.37C369.706,233.323,368.597,234.432,367.229,234.432z"
			/>
		<path id="XMLID_508_" style="opacity:0.5;fill:#FEFFFF;" d="M395.887,234.432h-20.374c-0.915,0-1.656-0.741-1.656-1.656v-4.011
			c0-0.915,0.741-1.656,1.656-1.656h20.374c0.915,0,1.656,0.742,1.656,1.656v4.011C397.543,233.69,396.802,234.432,395.887,234.432z
			"/>
		<path id="XMLID_509_" style="opacity:0.5;fill:#FEFFFF;" d="M395.887,285.634h-20.374c-0.915,0-1.656-0.741-1.656-1.656v-4.011
			c0-0.915,0.741-1.656,1.656-1.656h20.374c0.915,0,1.656,0.741,1.656,1.656v4.011C397.543,284.892,396.802,285.634,395.887,285.634
			z"/>
		<path id="XMLID_464_" style="opacity:0.5;fill:#FEFFFF;" d="M355.627,260.033h-94.063c-1.513,0-2.739-1.227-2.739-2.739v-1.844
			c0-1.513,1.226-2.74,2.739-2.74h94.063c1.513,0,2.74,1.227,2.74,2.74v1.844C358.367,258.806,357.14,260.033,355.627,260.033z"/>
		<path id="XMLID_459_" style="opacity:0.5;fill:#FEFFFF;" d="M328.142,285.634H261.44c-1.444,0-2.615-1.171-2.615-2.615v-2.094
			c0-1.444,1.171-2.615,2.615-2.615h66.702c1.444,0,2.615,1.171,2.615,2.615v2.094C330.756,284.463,329.586,285.634,328.142,285.634
			z"/>
		<g id="XMLID_467_" style="opacity:0.5;">
			<path id="XMLID_451_" style="opacity:0.8;fill:#FEFFFF;" d="M228.752,344.859h-0.058c-0.399,0-0.723-0.324-0.723-0.723V191.562
				c0-0.399,0.324-0.723,0.723-0.723h0.058c0.399,0,0.723,0.324,0.723,0.723v152.574
				C229.475,344.536,229.151,344.859,228.752,344.859z"/>
			<path id="XMLID_452_" style="opacity:0.8;fill:#FEFFFF;" d="M238.498,333.366h-0.113c-0.384,0-0.696-0.311-0.696-0.695V191.535
				c0-0.384,0.311-0.695,0.696-0.695h0.113c0.384,0,0.695,0.311,0.695,0.695V332.67
				C239.193,333.054,238.882,333.366,238.498,333.366z"/>
			<path id="XMLID_460_" style="opacity:0.8;fill:#FEFFFF;" d="M248.249,320.373h-0.177c-0.366,0-0.663-0.297-0.663-0.663V191.502
				c0-0.366,0.297-0.663,0.663-0.663h0.177c0.366,0,0.663,0.297,0.663,0.663v128.208
				C248.912,320.077,248.615,320.373,248.249,320.373z"/>
		</g>
		<path id="XMLID_450_" style="opacity:0.5;fill:#FEFFFF;" d="M399.889,324.035H247.387c-1.653,0-2.993-1.34-2.993-2.993v-1.337
			c0-1.653,1.34-2.993,2.993-2.993h152.502c1.653,0,2.993,1.34,2.993,2.993v1.337C402.882,322.695,401.542,324.035,399.889,324.035z
			"/>
		<path id="XMLID_449_" style="opacity:0.5;fill:#FEFFFF;" d="M399.712,348.521H228.318c-1.751,0-3.17-1.419-3.17-3.17v-0.984
			c0-1.751,1.419-3.17,3.17-3.17h171.394c1.751,0,3.17,1.419,3.17,3.17v0.984C402.882,347.102,401.463,348.521,399.712,348.521z"/>
		<path id="XMLID_441_" style="opacity:0.5;fill:#FEFFFF;" d="M308.814,337.027h-70.939c-1.648,0-2.984-1.336-2.984-2.984v-1.355
			c0-1.648,1.336-2.984,2.984-2.984h70.939c1.648,0,2.984,1.336,2.984,2.984v1.355C311.798,335.691,310.462,337.027,308.814,337.027
			z"/>
		<g id="XMLID_478_">
			<path id="XMLID_448_" style="fill:#E6C1B0;" d="M197.891,208.831h-18.365c-1.752,0-3.172-1.42-3.172-3.172v-0.979
				c0-1.752,1.42-3.172,3.172-3.172h18.365c1.752,0,3.172,1.42,3.172,3.172v0.979C201.063,207.411,199.642,208.831,197.891,208.831z
				"/>
			<path id="XMLID_444_" style="fill:#E6C1B0;" d="M197.891,234.432h-18.365c-1.752,0-3.172-1.42-3.172-3.172v-0.979
				c0-1.752,1.42-3.172,3.172-3.172h18.365c1.752,0,3.172,1.42,3.172,3.172v0.979C201.063,233.012,199.642,234.432,197.891,234.432z
				"/>
			<path id="XMLID_443_" style="fill:#E6C1B0;" d="M197.891,272.833h-18.365c-1.752,0-3.172-1.42-3.172-3.172v-0.979
				c0-1.752,1.42-3.172,3.172-3.172h18.365c1.752,0,3.172,1.42,3.172,3.172v0.979C201.063,271.413,199.642,272.833,197.891,272.833z
				"/>
			<path id="XMLID_442_" style="fill:#E6C1B0;" d="M197.891,298.434h-18.365c-1.752,0-3.172-1.42-3.172-3.172v-0.979
				c0-1.752,1.42-3.172,3.172-3.172h18.365c1.752,0,3.172,1.42,3.172,3.172v0.979C201.063,297.014,199.642,298.434,197.891,298.434z
				"/>
			<path id="XMLID_440_" style="fill:#E6C1B0;" d="M197.891,337.027h-18.365c-1.752,0-3.172-1.42-3.172-3.172v-0.979
				c0-1.752,1.42-3.172,3.172-3.172h18.365c1.752,0,3.172,1.42,3.172,3.172v0.979C201.063,335.607,199.642,337.027,197.891,337.027z
				"/>
		</g>
		<path id="XMLID_429_" style="fill:#FEFFFF;" d="M205.012,348.521c-0.415,0-0.752-0.337-0.752-0.752V182.743
			c0-0.415,0.336-0.752,0.752-0.752c0.415,0,0.752,0.336,0.752,0.752v165.026C205.764,348.184,205.427,348.521,205.012,348.521z"/>
		<g id="XMLID_502_" style="opacity:0.7;">
			<path id="XMLID_490_" style="fill:#514342;" d="M218.029,208.22h-5.401c-2.022,0-3.662-1.639-3.662-3.662
				c0-2.022,1.639-3.662,3.662-3.662h5.401c2.022,0,3.662,1.639,3.662,3.662C221.691,206.581,220.052,208.22,218.029,208.22z"/>
			<path id="XMLID_438_" style="fill:#514342;" d="M218.029,221.021h-5.401c-2.022,0-3.662-1.639-3.662-3.662
				s1.639-3.662,3.662-3.662h5.401c2.022,0,3.662,1.639,3.662,3.662S220.052,221.021,218.029,221.021z"/>
			<path id="XMLID_479_" style="fill:#514342;" d="M218.025,233.821h-5.401c-2.022,0-3.662-1.639-3.662-3.662
				c0-2.022,1.639-3.662,3.662-3.662h5.401c2.022,0,3.662,1.639,3.662,3.662C221.687,232.182,220.047,233.821,218.025,233.821z"/>
			<path id="XMLID_481_" style="fill:#514342;" d="M218.029,246.622h-5.401c-2.022,0-3.662-1.639-3.662-3.662
				c0-2.022,1.639-3.662,3.662-3.662h5.401c2.022,0,3.662,1.639,3.662,3.662C221.691,244.982,220.052,246.622,218.029,246.622z"/>
			<path id="XMLID_482_" style="fill:#514342;" d="M218.034,259.422h-5.401c-2.022,0-3.662-1.639-3.662-3.662
				c0-2.022,1.639-3.662,3.662-3.662h5.401c2.022,0,3.662,1.639,3.662,3.662C221.695,257.783,220.056,259.422,218.034,259.422z"/>
			<path id="XMLID_483_" style="fill:#514342;" d="M218.038,272.223h-5.402c-2.022,0-3.662-1.639-3.662-3.662
				c0-2.022,1.639-3.662,3.662-3.662h5.402c2.022,0,3.662,1.639,3.662,3.662C221.699,270.583,220.06,272.223,218.038,272.223z"/>
			<path id="XMLID_484_" style="fill:#514342;" d="M218.042,285.023h-5.401c-2.022,0-3.662-1.639-3.662-3.662
				s1.639-3.662,3.662-3.662h5.401c2.022,0,3.662,1.639,3.662,3.662S220.064,285.023,218.042,285.023z"/>
			<path id="XMLID_493_" style="fill:#514342;" d="M218.046,297.824h-5.401c-2.022,0-3.662-1.639-3.662-3.662
				c0-2.022,1.639-3.662,3.662-3.662h5.401c2.022,0,3.662,1.639,3.662,3.662C221.708,296.184,220.069,297.824,218.046,297.824z"/>
			<path id="XMLID_494_" style="fill:#514342;" d="M218.051,310.624h-5.401c-2.022,0-3.662-1.639-3.662-3.662
				s1.639-3.662,3.662-3.662h5.401c2.022,0,3.662,1.639,3.662,3.662S220.073,310.624,218.051,310.624z"/>
			<path id="XMLID_496_" style="fill:#514342;" d="M218.055,323.425h-5.401c-2.022,0-3.662-1.64-3.662-3.662
				c0-2.022,1.639-3.662,3.662-3.662h5.401c2.022,0,3.662,1.639,3.662,3.662C221.716,321.785,220.077,323.425,218.055,323.425z"/>
			<path id="XMLID_498_" style="fill:#514342;" d="M218.059,336.225h-5.401c-2.022,0-3.662-1.639-3.662-3.662
				c0-2.022,1.639-3.662,3.662-3.662h5.401c2.022,0,3.662,1.639,3.662,3.662C221.721,334.586,220.081,336.225,218.059,336.225z"/>
			<path id="XMLID_499_" style="fill:#514342;" d="M218.059,347.91h-5.401c-2.022,0-3.662-1.639-3.662-3.662
				s1.639-3.662,3.662-3.662h5.401c2.022,0,3.662,1.639,3.662,3.662S220.081,347.91,218.059,347.91z"/>
		</g>
		<path id="XMLID_503_" style="opacity:0.8;fill:#514342;" d="M248.713,194.501h-20.158c-2.022,0-3.662-1.639-3.662-3.662
			c0-2.022,1.639-3.662,3.662-3.662h20.158c2.022,0,3.662,1.639,3.662,3.662C252.374,192.862,250.735,194.501,248.713,194.501z"/>
		<path id="XMLID_504_" style="opacity:0.8;fill:#514342;" d="M297.079,194.501h-34.593c-2.022,0-3.662-1.639-3.662-3.662
			c0-2.022,1.639-3.662,3.662-3.662h34.593c2.022,0,3.662,1.639,3.662,3.662C300.741,192.862,299.102,194.501,297.079,194.501z"/>
		<path id="XMLID_505_" style="opacity:0.8;fill:#514342;" d="M363.009,194.501h-50.77c-2.022,0-3.662-1.639-3.662-3.662
			c0-2.022,1.639-3.662,3.662-3.662h50.77c2.022,0,3.662,1.639,3.662,3.662C366.671,192.862,365.032,194.501,363.009,194.501z"/>
		<path id="XMLID_506_" style="opacity:0.8;fill:#514342;" d="M394.321,194.501H377.08c-1.894,0-3.429-1.535-3.429-3.429v-0.465
			c0-1.894,1.535-3.429,3.429-3.429h17.241c1.894,0,3.429,1.535,3.429,3.429v0.465C397.75,192.966,396.215,194.501,394.321,194.501z
			"/>
	</g>
	<g id="XMLID_558_">
		<g id="XMLID_550_">
			<path style="fill:#D2E8EF;" d="M159.796,130.579h-9.523c-1.576,0-2.854-1.277-2.854-2.854v-9.524
				c0-1.576,1.277-2.853,2.854-2.853h9.523c1.576,0,2.854,1.278,2.854,2.853v9.524C162.649,129.301,161.372,130.579,159.796,130.579
				z"/>
			<path style="fill:#9EBFD8;" d="M159.796,131.189h-9.524c-1.91,0-3.464-1.554-3.464-3.464v-9.523c0-1.91,1.554-3.464,3.464-3.464
				h9.524c1.91,0,3.464,1.554,3.464,3.464v9.523C163.26,129.635,161.706,131.189,159.796,131.189z M150.272,115.959
				c-1.237,0-2.243,1.006-2.243,2.243v9.523c0,1.237,1.006,2.243,2.243,2.243h9.524c1.237,0,2.243-1.006,2.243-2.243v-9.523
				c0-1.237-1.006-2.243-2.243-2.243H150.272z"/>
		</g>
		<g id="XMLID_554_">
			<g id="XMLID_552_">
				<path style="fill:#FEFFFF;" d="M159.476,127.942c-0.137,0-0.275-0.052-0.38-0.157l-8.883-8.884c-0.21-0.21-0.21-0.55,0-0.76
					c0.21-0.21,0.55-0.21,0.76,0l8.884,8.884c0.21,0.21,0.21,0.55,0,0.76C159.751,127.89,159.613,127.942,159.476,127.942z"/>
			</g>
			<g id="XMLID_553_">
				<path style="fill:#FEFFFF;" d="M150.592,127.942c-0.137,0-0.275-0.052-0.38-0.157c-0.21-0.21-0.21-0.55,0-0.76l8.883-8.884
					c0.21-0.21,0.55-0.21,0.76,0c0.21,0.21,0.21,0.55,0,0.76l-8.884,8.884C150.867,127.89,150.73,127.942,150.592,127.942z"/>
			</g>
		</g>
	</g>
	<g id="XMLID_560_">
		<path style="fill:#9EBFD8;" d="M151.25,124.474h-9.524c-1.576,0-2.854-1.278-2.854-2.854v-9.524c0-1.576,1.278-2.853,2.854-2.853
			h9.524c1.576,0,2.854,1.278,2.854,2.853v9.524C154.103,123.197,152.825,124.474,151.25,124.474z"/>
		<path style="fill:#D2E8EF;" d="M151.249,125.085h-9.523c-1.91,0-3.464-1.554-3.464-3.464v-9.524c0-1.91,1.554-3.464,3.464-3.464
			h9.523c1.91,0,3.464,1.554,3.464,3.464v9.524C154.713,123.531,153.159,125.085,151.249,125.085z M141.726,109.854
			c-1.237,0-2.243,1.006-2.243,2.243v9.524c0,1.237,1.006,2.243,2.243,2.243h9.523c1.237,0,2.243-1.006,2.243-2.243v-9.524
			c0-1.237-1.006-2.243-2.243-2.243H141.726z"/>
	</g>
	<path id="XMLID_571_" style="fill:#FEFFFF;" d="M149.097,120.922l-2.487-1.257c-0.038-0.019-0.084-0.019-0.121,0.002l-2.446,1.336
		c-0.095,0.052-0.208-0.028-0.191-0.134l0.427-2.754c0.007-0.042-0.008-0.085-0.039-0.115l-2.027-1.913
		c-0.079-0.074-0.038-0.206,0.069-0.223l2.751-0.445c0.042-0.007,0.079-0.034,0.097-0.073l1.193-2.519
		c0.046-0.098,0.184-0.1,0.234-0.004l1.273,2.479c0.02,0.038,0.057,0.064,0.099,0.07l2.764,0.356
		c0.107,0.014,0.152,0.145,0.076,0.221l-1.964,1.977c-0.03,0.031-0.044,0.074-0.036,0.116l0.515,2.739
		C149.304,120.887,149.194,120.97,149.097,120.922z"/>
	<g id="XMLID_789_">
		<g id="XMLID_793_">
			<path style="fill:#D2E8EF;" d="M465.704,281.065h9.524c1.576,0,2.854-1.277,2.854-2.853v-9.523c0-1.576-1.278-2.854-2.854-2.854
				h-9.524c-1.576,0-2.853,1.278-2.853,2.854v9.523C462.85,279.787,464.128,281.065,465.704,281.065z"/>
			<path style="fill:#9EBFD8;" d="M475.227,281.675h-9.523c-1.91,0-3.464-1.554-3.464-3.464v-9.523c0-1.91,1.554-3.464,3.464-3.464
				h9.523c1.91,0,3.464,1.554,3.464,3.464v9.523C478.691,280.121,477.137,281.675,475.227,281.675z M465.704,266.445
				c-1.237,0-2.243,1.006-2.243,2.243v9.523c0,1.237,1.006,2.243,2.243,2.243h9.523c1.237,0,2.243-1.006,2.243-2.243v-9.523
				c0-1.237-1.006-2.243-2.243-2.243H465.704z"/>
		</g>
		<g id="XMLID_790_">
			<g id="XMLID_792_">
				<path style="fill:#FEFFFF;" d="M466.024,278.429c-0.138,0-0.275-0.052-0.38-0.157c-0.21-0.21-0.21-0.55,0-0.76l8.883-8.884
					c0.211-0.21,0.55-0.21,0.761,0c0.21,0.21,0.21,0.55,0,0.76l-8.883,8.884C466.299,278.376,466.162,278.429,466.024,278.429z"/>
			</g>
			<g id="XMLID_791_">
				<path style="fill:#FEFFFF;" d="M474.907,278.429c-0.138,0-0.275-0.052-0.38-0.157l-8.883-8.884c-0.21-0.21-0.21-0.55,0-0.76
					c0.211-0.21,0.55-0.21,0.761,0l8.883,8.884c0.21,0.21,0.21,0.55,0,0.76C475.182,278.376,475.045,278.429,474.907,278.429z"/>
			</g>
		</g>
	</g>
	<g id="XMLID_785_">
		<path style="fill:#9EBFD8;" d="M474.25,274.96h9.523c1.576,0,2.853-1.278,2.853-2.853v-9.524c0-1.576-1.277-2.853-2.853-2.853
			h-9.523c-1.576,0-2.854,1.277-2.854,2.853v9.524C471.397,273.683,472.674,274.96,474.25,274.96z"/>
		<path style="fill:#D2E8EF;" d="M483.773,275.571h-9.523c-1.91,0-3.464-1.554-3.464-3.464v-9.524c0-1.91,1.554-3.464,3.464-3.464
			h9.523c1.91,0,3.464,1.554,3.464,3.464v9.524C487.238,274.017,485.683,275.571,483.773,275.571z M474.25,260.34
			c-1.237,0-2.243,1.006-2.243,2.243v9.524c0,1.237,1.006,2.243,2.243,2.243h9.523c1.237,0,2.243-1.006,2.243-2.243v-9.524
			c0-1.237-1.006-2.243-2.243-2.243H474.25z"/>
	</g>
	<path id="XMLID_783_" style="fill:#FEFFFF;" d="M476.402,271.408l2.487-1.257c0.038-0.019,0.084-0.019,0.121,0.002l2.446,1.336
		c0.095,0.052,0.208-0.028,0.191-0.134l-0.427-2.754c-0.007-0.042,0.008-0.085,0.039-0.115l2.027-1.913
		c0.079-0.074,0.038-0.206-0.069-0.223l-2.751-0.445c-0.042-0.007-0.079-0.034-0.097-0.073l-1.193-2.519
		c-0.046-0.098-0.184-0.1-0.234-0.004l-1.273,2.479c-0.02,0.038-0.057,0.064-0.099,0.07l-2.764,0.356
		c-0.107,0.014-0.152,0.144-0.076,0.221l1.964,1.977c0.03,0.03,0.044,0.074,0.036,0.116l-0.515,2.739
		C476.196,271.374,476.306,271.457,476.402,271.408z"/>
	<g id="XMLID_578_">
		<g id="XMLID_544_">
			<path style="fill:#514342;" d="M487.944,192.931h-45.066c-8.216,0-14.876-6.66-14.876-14.876c0-8.216,6.66-14.876,14.876-14.876
				h45.066c8.216,0,14.876,6.66,14.876,14.876C502.82,186.271,496.16,192.931,487.944,192.931z"/>
			<path style="fill:#463C3A;" d="M487.944,193.847h-45.066c-8.708,0-15.792-7.084-15.792-15.792
				c0-8.707,7.084-15.792,15.792-15.792h45.066c8.708,0,15.792,7.084,15.792,15.792
				C503.736,186.762,496.652,193.847,487.944,193.847z M442.878,164.094c-7.698,0-13.96,6.263-13.96,13.96
				c0,7.698,6.262,13.961,13.96,13.961h45.066c7.698,0,13.96-6.263,13.96-13.961c0-7.698-6.262-13.96-13.96-13.96H442.878z"/>
		</g>
		<g id="XMLID_577_">
			<path id="XMLID_574_" style="fill:#D6723A;" d="M438.09,180.821c-1.528,0-2.766-1.238-2.766-2.766
				c0-1.528,1.238-2.766,2.766-2.766c1.528,0,2.766,1.238,2.766,2.766C440.856,179.582,439.617,180.821,438.09,180.821z"/>
			<path id="XMLID_575_" style="opacity:0.5;fill:#FEFFFF;" d="M478.592,180.821h-31.482c-1.528,0-2.766-1.238-2.766-2.766
				c0-1.528,1.238-2.766,2.766-2.766h31.482c1.528,0,2.766,1.238,2.766,2.766C481.358,179.582,480.119,180.821,478.592,180.821z"/>
			<path id="XMLID_576_" style="opacity:0.5;fill:#FEFFFF;" d="M492.732,180.821h-6.54c-1.528,0-2.766-1.238-2.766-2.766
				c0-1.528,1.238-2.766,2.766-2.766h6.54c1.528,0,2.766,1.238,2.766,2.766C495.498,179.582,494.26,180.821,492.732,180.821z"/>
		</g>
	</g>
	<g id="XMLID_585_">
		<g id="XMLID_546_">
			<path style="fill:#D2E8EF;" d="M464.334,262.245h-72.607c-1.121,0-2.029-0.908-2.029-2.029v-59.945
				c0-1.12,0.908-2.029,2.029-2.029h72.607c1.12,0,2.029,0.908,2.029,2.029v59.945C466.363,261.337,465.454,262.245,464.334,262.245
				z"/>
			<path style="fill:#9EBFD8;" d="M464.334,263.161h-72.607c-1.623,0-2.944-1.321-2.944-2.944v-59.945
				c0-1.624,1.321-2.945,2.944-2.945h72.607c1.623,0,2.944,1.321,2.944,2.945v59.945
				C467.278,261.84,465.957,263.161,464.334,263.161z M391.727,199.158c-0.613,0-1.113,0.5-1.113,1.113v59.945
				c0,0.614,0.5,1.113,1.113,1.113h72.607c0.613,0,1.113-0.499,1.113-1.113v-59.945c0-0.614-0.5-1.113-1.113-1.113H391.727z"/>
		</g>
		<g id="XMLID_579_">
			<circle id="XMLID_584_" style="fill:#9EBFD8;" cx="398.923" cy="209.093" r="2.766"/>
			<path id="XMLID_581_" style="opacity:0.5;fill:#FEFFFF;" d="M439.425,211.859h-31.482c-1.527,0-2.766-1.238-2.766-2.766
				s1.238-2.766,2.766-2.766h31.482c1.528,0,2.766,1.238,2.766,2.766S440.953,211.859,439.425,211.859z"/>
			<path id="XMLID_580_" style="opacity:0.5;fill:#FEFFFF;" d="M453.566,211.859h-6.54c-1.528,0-2.766-1.238-2.766-2.766
				s1.238-2.766,2.766-2.766h6.54c1.528,0,2.766,1.238,2.766,2.766S455.093,211.859,453.566,211.859z"/>
			<path id="XMLID_616_" style="fill:#9EBFD8;" d="M453.566,220.621c1.528,0,2.766-1.238,2.766-2.766s-1.238-2.766-2.766-2.766
				s-2.766,1.238-2.766,2.766S452.038,220.621,453.566,220.621z"/>
			<path id="XMLID_592_" style="opacity:0.5;fill:#FEFFFF;" d="M413.064,220.621h31.482c1.528,0,2.766-1.238,2.766-2.766
				s-1.238-2.766-2.766-2.766h-31.482c-1.527,0-2.766,1.238-2.766,2.766S411.536,220.621,413.064,220.621z"/>
			<path id="XMLID_588_" style="opacity:0.5;fill:#FEFFFF;" d="M398.923,220.621h6.54c1.528,0,2.766-1.238,2.766-2.766
				s-1.238-2.766-2.766-2.766h-6.54c-1.528,0-2.766,1.238-2.766,2.766S397.396,220.621,398.923,220.621z"/>
			<circle id="XMLID_628_" style="fill:#9EBFD8;" cx="398.923" cy="225.863" r="2.766"/>
			<path id="XMLID_627_" style="opacity:0.5;fill:#FEFFFF;" d="M439.425,228.629h-31.482c-1.527,0-2.766-1.238-2.766-2.766
				c0-1.528,1.238-2.766,2.766-2.766h31.482c1.528,0,2.766,1.238,2.766,2.766C442.191,227.39,440.953,228.629,439.425,228.629z"/>
			<path id="XMLID_626_" style="opacity:0.5;fill:#FEFFFF;" d="M453.566,228.629h-6.54c-1.528,0-2.766-1.238-2.766-2.766
				c0-1.528,1.238-2.766,2.766-2.766h6.54c1.528,0,2.766,1.238,2.766,2.766C456.332,227.39,455.093,228.629,453.566,228.629z"/>
			<path id="XMLID_624_" style="fill:#9EBFD8;" d="M453.566,237.391c1.528,0,2.766-1.238,2.766-2.766
				c0-1.528-1.238-2.766-2.766-2.766s-2.766,1.238-2.766,2.766C450.8,236.152,452.038,237.391,453.566,237.391z"/>
			<path id="XMLID_622_" style="opacity:0.5;fill:#FEFFFF;" d="M413.064,237.391h31.482c1.528,0,2.766-1.238,2.766-2.766
				c0-1.528-1.238-2.766-2.766-2.766h-31.482c-1.527,0-2.766,1.238-2.766,2.766C410.298,236.152,411.536,237.391,413.064,237.391z"
				/>
			<path id="XMLID_621_" style="opacity:0.5;fill:#FEFFFF;" d="M398.923,237.391h6.54c1.528,0,2.766-1.238,2.766-2.766
				c0-1.528-1.238-2.766-2.766-2.766h-6.54c-1.528,0-2.766,1.238-2.766,2.766C396.157,236.152,397.396,237.391,398.923,237.391z"/>
			<circle id="XMLID_636_" style="fill:#9EBFD8;" cx="398.923" cy="242.633" r="2.766"/>
			<path id="XMLID_635_" style="opacity:0.5;fill:#FEFFFF;" d="M439.425,245.398h-31.482c-1.527,0-2.766-1.238-2.766-2.766
				s1.238-2.766,2.766-2.766h31.482c1.528,0,2.766,1.238,2.766,2.766S440.953,245.398,439.425,245.398z"/>
			<path id="XMLID_634_" style="opacity:0.5;fill:#FEFFFF;" d="M453.566,245.398h-6.54c-1.528,0-2.766-1.238-2.766-2.766
				s1.238-2.766,2.766-2.766h6.54c1.528,0,2.766,1.238,2.766,2.766S455.093,245.398,453.566,245.398z"/>
			<path id="XMLID_632_" style="fill:#9EBFD8;" d="M453.566,254.161c1.528,0,2.766-1.238,2.766-2.766
				c0-1.528-1.238-2.766-2.766-2.766s-2.766,1.238-2.766,2.766C450.8,252.922,452.038,254.161,453.566,254.161z"/>
			<path id="XMLID_631_" style="opacity:0.5;fill:#FEFFFF;" d="M413.064,254.161h31.482c1.528,0,2.766-1.238,2.766-2.766
				c0-1.528-1.238-2.766-2.766-2.766h-31.482c-1.527,0-2.766,1.238-2.766,2.766C410.298,252.922,411.536,254.161,413.064,254.161z"
				/>
			<path id="XMLID_630_" style="opacity:0.5;fill:#FEFFFF;" d="M398.923,254.161h6.54c1.528,0,2.766-1.238,2.766-2.766
				c0-1.528-1.238-2.766-2.766-2.766h-6.54c-1.528,0-2.766,1.238-2.766,2.766C396.157,252.922,397.396,254.161,398.923,254.161z"/>
		</g>
	</g>
	<g id="XMLID_726_">
		<g id="XMLID_539_">
			<path style="fill:#F6BCAC;" d="M515.336,94.337H402.451c-13.559,0-24.55,10.991-24.55,24.55v13.341
				c0,12.393,10.047,22.44,22.44,22.44c0.997,0,1.664,1.018,1.271,1.934c-1.799,4.186-3.543,8.446-5.551,12.357
				c-0.578,1.126,0.491,2.382,1.706,2.026c6.31-1.847,12.562-5.178,18.656-8.681c8.646-4.969,18.405-7.636,28.377-7.636
				c18.524,0,50.144,0,70.537,0c10.729,0,19.426-8.697,19.426-19.426v-21.479C534.762,103.035,526.065,94.337,515.336,94.337z"/>
			<path style="fill:#F4A894;" d="M397.338,171.964c-0.693,0-1.351-0.305-1.814-0.865c-0.605-0.733-0.712-1.713-0.278-2.557
				c1.642-3.197,3.136-6.703,4.581-10.094c0.314-0.736,0.628-1.472,0.943-2.206c0.088-0.204,0.014-0.368-0.039-0.447
				c-0.051-0.078-0.171-0.21-0.391-0.21c-12.878,0-23.355-10.477-23.355-23.356v-13.342c0-14.042,11.424-25.466,25.466-25.466
				h112.885c11.216,0,20.342,9.125,20.342,20.342v21.479c0,11.217-9.125,20.342-20.341,20.342h-70.537
				c-9.714,0-19.369,2.598-27.921,7.514c-5.979,3.436-12.402,6.877-18.855,8.766C397.795,171.931,397.565,171.964,397.338,171.964z
				 M402.451,95.253c-13.032,0-23.634,10.602-23.634,23.634v13.342c0,11.868,9.656,21.524,21.524,21.524
				c0.776,0,1.494,0.386,1.921,1.033c0.427,0.648,0.498,1.462,0.191,2.177c-0.315,0.733-0.628,1.467-0.941,2.201
				c-1.458,3.421-2.965,6.957-4.637,10.212c-0.132,0.258-0.019,0.458,0.061,0.554c0.054,0.065,0.252,0.269,0.573,0.175
				c6.269-1.836,12.575-5.216,18.457-8.596c8.829-5.075,18.8-7.757,28.833-7.757h70.537c10.206,0,18.51-8.304,18.51-18.511v-21.479
				c0-10.207-8.304-18.511-18.511-18.511H402.451z"/>
		</g>
		<g id="XMLID_724_">
			<path id="XMLID_617_" style="opacity:0.5;fill:#FEFFFF;" d="M395.481,109.986h-2.231c-0.373,0-0.676-0.303-0.676-0.676v-2.231
				c0-0.373,0.303-0.676,0.676-0.676h2.231c0.374,0,0.676,0.303,0.676,0.676v2.231C396.157,109.684,395.855,109.986,395.481,109.986
				z"/>
			<path id="XMLID_625_" style="opacity:0.5;fill:#FEFFFF;" d="M421.892,109.986h-15.172c-0.989,0-1.792-0.802-1.792-1.791
				s0.802-1.792,1.792-1.792h15.172c0.989,0,1.792,0.802,1.792,1.792S422.882,109.986,421.892,109.986z"/>
			<path id="XMLID_629_" style="opacity:0.5;fill:#FEFFFF;" d="M477.402,109.986h-43.338c-0.989,0-1.791-0.802-1.791-1.791
				s0.802-1.792,1.791-1.792h43.338c0.99,0,1.792,0.802,1.792,1.792S478.391,109.986,477.402,109.986z"/>
			<path id="XMLID_633_" style="opacity:0.5;fill:#FEFFFF;" d="M491.387,109.986h-2.708c-0.241,0-0.437-0.196-0.437-0.437v-2.708
				c0-0.242,0.196-0.437,0.437-0.437h2.708c0.242,0,0.437,0.196,0.437,0.437v2.708C491.824,109.791,491.628,109.986,491.387,109.986
				z"/>
			<path id="XMLID_637_" style="opacity:0.5;fill:#FEFFFF;" d="M515.275,109.986h-14.091c-0.99,0-1.792-0.802-1.792-1.791
				s0.802-1.792,1.792-1.792h14.091c0.989,0,1.792,0.802,1.792,1.792S516.265,109.986,515.275,109.986z"/>
			<path id="XMLID_642_" style="opacity:0.5;fill:#FEFFFF;" d="M396.393,118.679h-2.231c-0.373,0-0.676-0.303-0.676-0.676v-2.231
				c0-0.373,0.303-0.676,0.676-0.676h2.231c0.374,0,0.676,0.303,0.676,0.676v2.231C397.069,118.377,396.767,118.679,396.393,118.679
				z"/>
			<path id="XMLID_641_" style="opacity:0.5;fill:#FEFFFF;" d="M422.804,118.679h-15.172c-0.989,0-1.792-0.802-1.792-1.792
				c0-0.989,0.802-1.792,1.792-1.792h15.172c0.99,0,1.792,0.802,1.792,1.792C424.596,117.877,423.794,118.679,422.804,118.679z"/>
			<path id="XMLID_640_" style="opacity:0.5;fill:#FEFFFF;" d="M478.314,118.679h-43.338c-0.99,0-1.792-0.802-1.792-1.792
				c0-0.989,0.802-1.792,1.792-1.792h43.338c0.989,0,1.792,0.802,1.792,1.792C480.105,117.877,479.303,118.679,478.314,118.679z"/>
			<path id="XMLID_639_" style="opacity:0.5;fill:#FEFFFF;" d="M492.299,118.679h-2.708c-0.242,0-0.437-0.196-0.437-0.437v-2.708
				c0-0.242,0.196-0.437,0.437-0.437h2.708c0.241,0,0.437,0.196,0.437,0.437v2.708C492.736,118.483,492.54,118.679,492.299,118.679z
				"/>
			<path id="XMLID_638_" style="opacity:0.5;fill:#FEFFFF;" d="M516.187,118.679h-14.091c-0.989,0-1.792-0.802-1.792-1.792
				c0-0.989,0.802-1.792,1.792-1.792h14.091c0.989,0,1.792,0.802,1.792,1.792C517.979,117.877,517.177,118.679,516.187,118.679z"/>
			<path id="XMLID_647_" style="opacity:0.5;fill:#FEFFFF;" d="M397.305,127.372h-2.231c-0.373,0-0.676-0.303-0.676-0.676v-2.231
				c0-0.373,0.303-0.676,0.676-0.676h2.231c0.373,0,0.676,0.303,0.676,0.676v2.231C397.981,127.07,397.679,127.372,397.305,127.372z
				"/>
			<path id="XMLID_646_" style="opacity:0.5;fill:#FEFFFF;" d="M423.717,127.372h-15.172c-0.989,0-1.792-0.802-1.792-1.792
				c0-0.989,0.802-1.792,1.792-1.792h15.172c0.989,0,1.792,0.802,1.792,1.792C425.508,126.57,424.706,127.372,423.717,127.372z"/>
			<path id="XMLID_645_" style="opacity:0.5;fill:#FEFFFF;" d="M479.226,127.372h-43.338c-0.989,0-1.792-0.802-1.792-1.792
				c0-0.989,0.802-1.792,1.792-1.792h43.338c0.989,0,1.792,0.802,1.792,1.792C481.017,126.57,480.215,127.372,479.226,127.372z"/>
			<path id="XMLID_644_" style="opacity:0.5;fill:#FEFFFF;" d="M493.211,127.372h-2.708c-0.242,0-0.437-0.196-0.437-0.437v-2.708
				c0-0.242,0.196-0.437,0.437-0.437h2.708c0.242,0,0.437,0.196,0.437,0.437v2.708C493.648,127.176,493.452,127.372,493.211,127.372
				z"/>
			<path id="XMLID_643_" style="opacity:0.5;fill:#FEFFFF;" d="M517.099,127.372h-14.091c-0.989,0-1.791-0.802-1.791-1.792
				c0-0.989,0.802-1.792,1.791-1.792h14.091c0.99,0,1.792,0.802,1.792,1.792C518.891,126.57,518.089,127.372,517.099,127.372z"/>
			<path id="XMLID_652_" style="opacity:0.5;fill:#FEFFFF;" d="M398.217,136.065h-2.231c-0.374,0-0.676-0.303-0.676-0.676v-2.231
				c0-0.373,0.303-0.676,0.676-0.676h2.231c0.374,0,0.676,0.303,0.676,0.676v2.231C398.893,135.762,398.591,136.065,398.217,136.065
				z"/>
			<path id="XMLID_651_" style="opacity:0.5;fill:#FEFFFF;" d="M424.629,136.065h-15.172c-0.99,0-1.792-0.802-1.792-1.792
				c0-0.989,0.802-1.792,1.792-1.792h15.172c0.989,0,1.792,0.802,1.792,1.792C426.42,135.263,425.618,136.065,424.629,136.065z"/>
			<path id="XMLID_650_" style="opacity:0.5;fill:#FEFFFF;" d="M480.138,136.065H436.8c-0.989,0-1.792-0.802-1.792-1.792
				c0-0.989,0.802-1.792,1.792-1.792h43.338c0.989,0,1.791,0.802,1.791,1.792C481.929,135.263,481.127,136.065,480.138,136.065z"/>
			<path id="XMLID_649_" style="opacity:0.5;fill:#FEFFFF;" d="M494.123,136.065h-2.708c-0.242,0-0.437-0.196-0.437-0.437v-2.708
				c0-0.242,0.196-0.437,0.437-0.437h2.708c0.242,0,0.437,0.196,0.437,0.437v2.708C494.56,135.869,494.364,136.065,494.123,136.065z
				"/>
			<path id="XMLID_648_" style="opacity:0.5;fill:#FEFFFF;" d="M518.011,136.065H503.92c-0.99,0-1.792-0.802-1.792-1.792
				c0-0.989,0.802-1.792,1.792-1.792h14.091c0.99,0,1.792,0.802,1.792,1.792C519.803,135.263,519.001,136.065,518.011,136.065z"/>
			<path id="XMLID_723_" style="opacity:0.5;fill:#FEFFFF;" d="M399.129,144.758h-2.23c-0.374,0-0.676-0.303-0.676-0.676v-2.231
				c0-0.373,0.303-0.676,0.676-0.676h2.23c0.374,0,0.676,0.303,0.676,0.676v2.231C399.805,144.455,399.503,144.758,399.129,144.758z
				"/>
			<path id="XMLID_722_" style="opacity:0.5;fill:#FEFFFF;" d="M425.541,144.758h-15.172c-0.99,0-1.792-0.802-1.792-1.791
				c0-0.99,0.802-1.792,1.792-1.792h15.172c0.99,0,1.792,0.802,1.792,1.792C427.332,143.956,426.53,144.758,425.541,144.758z"/>
			<path id="XMLID_655_" style="opacity:0.5;fill:#FEFFFF;" d="M481.05,144.758h-43.338c-0.99,0-1.792-0.802-1.792-1.791
				c0-0.99,0.802-1.792,1.792-1.792h43.338c0.99,0,1.792,0.802,1.792,1.792C482.841,143.956,482.039,144.758,481.05,144.758z"/>
			<path id="XMLID_654_" style="opacity:0.5;fill:#FEFFFF;" d="M495.035,144.758h-2.708c-0.242,0-0.437-0.196-0.437-0.437v-2.708
				c0-0.242,0.196-0.437,0.437-0.437h2.708c0.242,0,0.437,0.196,0.437,0.437v2.708C495.472,144.562,495.276,144.758,495.035,144.758
				z"/>
			<path id="XMLID_653_" style="opacity:0.5;fill:#FEFFFF;" d="M518.924,144.758h-14.091c-0.99,0-1.792-0.802-1.792-1.791
				c0-0.99,0.802-1.792,1.792-1.792h14.091c0.989,0,1.792,0.802,1.792,1.792C520.715,143.956,519.913,144.758,518.924,144.758z"/>
		</g>
	</g>
	<g id="XMLID_745_">
		<g id="XMLID_543_">
			<path style="fill:#514342;" d="M238.453,95.166h51.453c6.18,0,11.19,6.575,11.19,14.685v7.98c0,7.413-4.579,13.423-10.228,13.423
				c-0.455,0-0.759,0.609-0.579,1.157c0.82,2.504,1.615,5.052,2.53,7.391c0.264,0.674-0.224,1.425-0.777,1.212
				c-2.876-1.105-5.726-3.098-8.503-5.193c-3.941-2.972-8.389-4.567-12.934-4.567c-8.443,0-22.856,0-32.151,0
				c-4.89,0-8.854-5.202-8.854-11.62v-12.848C229.599,100.369,233.563,95.166,238.453,95.166z"/>
			<path style="fill:#463C3A;" d="M292.231,141.966c-0.173,0-0.348-0.032-0.518-0.097c-3.006-1.155-5.97-3.238-8.726-5.316
				c-3.802-2.867-8.084-4.383-12.383-4.383h-32.151c-5.387,0-9.77-5.624-9.77-12.536v-12.848c0-6.912,4.383-12.536,9.77-12.536
				h51.453c6.675,0,12.106,6.998,12.106,15.601v7.98c0,7.775-4.835,14.125-10.84,14.333l0.417,1.281
				c0.658,2.025,1.338,4.118,2.082,6.023c0.278,0.711,0.121,1.534-0.391,2.049C292.989,141.811,292.614,141.966,292.231,141.966z
				 M238.453,96.082c-4.377,0-7.939,4.802-7.939,10.704v12.848c0,5.902,3.561,10.704,7.939,10.704h32.151
				c4.701,0,9.364,1.643,13.486,4.752c2.501,1.887,5.17,3.773,7.812,4.881c-0.739-1.909-1.408-3.967-2.055-5.96l-0.428-1.315
				c-0.192-0.585-0.095-1.245,0.251-1.723c0.292-0.403,0.728-0.634,1.198-0.634c5.135,0,9.312-5.611,9.312-12.507v-7.98
				c0-7.593-4.609-13.769-10.274-13.769H238.453z"/>
		</g>
		<g id="XMLID_744_">
			<path id="XMLID_727_" style="opacity:0.5;fill:#FEFFFF;" d="M242.845,107.028h-3.615c-0.396,0-0.717-0.321-0.717-0.717v-3.615
				c0-0.396,0.321-0.716,0.717-0.716h3.615c0.396,0,0.716,0.321,0.716,0.716v3.615C243.562,106.707,243.241,107.028,242.845,107.028
				z"/>
			<path id="XMLID_728_" style="fill:#D6723A;" d="M267.401,107.028h-15.593c-1.394,0-2.524-1.13-2.524-2.524
				s1.13-2.524,2.524-2.524h15.593c1.394,0,2.524,1.13,2.524,2.524S268.795,107.028,267.401,107.028z"/>
			<path id="XMLID_729_" style="opacity:0.5;fill:#FEFFFF;" d="M288.042,107.028h-8.414c-1.394,0-2.524-1.13-2.524-2.524
				s1.13-2.524,2.524-2.524h8.414c1.394,0,2.524,1.13,2.524,2.524S289.436,107.028,288.042,107.028z"/>
			<path id="XMLID_732_" style="opacity:0.5;fill:#FEFFFF;" d="M239.793,114.208h-3.615c-0.396,0-0.717-0.321-0.717-0.717v-3.615
				c0-0.396,0.321-0.716,0.717-0.716h3.615c0.396,0,0.717,0.321,0.717,0.716v3.615C240.51,113.887,240.189,114.208,239.793,114.208z
				"/>
			<path id="XMLID_731_" style="opacity:0.5;fill:#FEFFFF;" d="M264.348,114.208h-15.593c-1.394,0-2.524-1.13-2.524-2.524
				c0-1.394,1.13-2.524,2.524-2.524h15.593c1.394,0,2.524,1.13,2.524,2.524C266.872,113.077,265.742,114.208,264.348,114.208z"/>
			<path id="XMLID_730_" style="fill:#D6723A;" d="M284.99,114.208h-8.414c-1.394,0-2.524-1.13-2.524-2.524
				c0-1.394,1.13-2.524,2.524-2.524h8.414c1.394,0,2.524,1.13,2.524,2.524C287.514,113.077,286.384,114.208,284.99,114.208z"/>
			<path id="XMLID_739_" style="opacity:0.5;fill:#FEFFFF;" d="M242.845,121.387h-3.615c-0.396,0-0.717-0.321-0.717-0.717v-3.615
				c0-0.396,0.321-0.716,0.717-0.716h3.615c0.396,0,0.716,0.321,0.716,0.716v3.615C243.562,121.066,243.241,121.387,242.845,121.387
				z"/>
			<path id="XMLID_738_" style="fill:#D6723A;" d="M267.401,121.387h-15.593c-1.394,0-2.524-1.13-2.524-2.524
				c0-1.394,1.13-2.524,2.524-2.524h15.593c1.394,0,2.524,1.13,2.524,2.524C269.925,120.257,268.795,121.387,267.401,121.387z"/>
			<path id="XMLID_736_" style="opacity:0.5;fill:#FEFFFF;" d="M288.042,121.387h-8.414c-1.394,0-2.524-1.13-2.524-2.524
				c0-1.394,1.13-2.524,2.524-2.524h8.414c1.394,0,2.524,1.13,2.524,2.524C290.566,120.257,289.436,121.387,288.042,121.387z"/>
		</g>
	</g>
	<g id="XMLID_760_">
		<g id="XMLID_548_">
			<path style="fill:#EED1C9;" d="M207.243,197.681h-80.54c-0.702,0-1.306-0.496-1.442-1.185l-8.575-43.33
				c-0.18-0.909,0.516-1.756,1.442-1.756h80.54c0.702,0,1.306,0.496,1.442,1.185l8.575,43.33
				C208.865,196.834,208.169,197.681,207.243,197.681z"/>
			<path style="fill:#D0AB9E;" d="M207.243,198.902h-80.54c-1.281,0-2.391-0.912-2.64-2.169l-8.575-43.33
				c-0.157-0.793,0.047-1.606,0.561-2.231c0.513-0.624,1.271-0.983,2.079-0.983h80.54c1.281,0,2.391,0.912,2.64,2.169l8.575,43.33
				c0.157,0.793-0.047,1.606-0.561,2.231C208.809,198.544,208.051,198.902,207.243,198.902z M118.128,152.631
				c-0.097,0-0.159,0.049-0.192,0.091c-0.034,0.042-0.071,0.111-0.052,0.207l8.575,43.33c0.023,0.117,0.126,0.201,0.244,0.201h80.54
				c0.098,0,0.159-0.049,0.193-0.091c0.034-0.042,0.071-0.111,0.052-0.207l-8.575-43.33c-0.023-0.117-0.126-0.201-0.245-0.201
				H118.128z"/>
		</g>
		<g id="XMLID_759_">
			<path id="XMLID_746_" style="opacity:0.5;fill:#FEFFFF;" d="M131.826,167.667h-4.541c-0.751,0-1.36-0.609-1.36-1.36v-4.54
				c0-0.751,0.609-1.36,1.36-1.36h4.541c0.751,0,1.36,0.609,1.36,1.36v4.54C133.186,167.058,132.578,167.667,131.826,167.667z"/>
			<path id="XMLID_747_" style="opacity:0.5;fill:#FEFFFF;" d="M171.265,167.667h-27.733c-0.751,0-1.36-0.609-1.36-1.36v-4.54
				c0-0.751,0.609-1.36,1.36-1.36h27.733c0.751,0,1.36,0.609,1.36,1.36v4.54C172.625,167.058,172.016,167.667,171.265,167.667z"/>
			<path id="XMLID_752_" style="opacity:0.5;fill:#FEFFFF;" d="M194.077,167.667h-11.288c-0.751,0-1.36-0.609-1.36-1.36v-4.54
				c0-0.751,0.609-1.36,1.36-1.36h11.288c0.751,0,1.36,0.609,1.36,1.36v4.54C195.437,167.058,194.828,167.667,194.077,167.667z"/>
			<path id="XMLID_755_" style="opacity:0.5;fill:#FEFFFF;" d="M134.003,177.732h-4.541c-0.751,0-1.36-0.609-1.36-1.36v-4.541
				c0-0.751,0.609-1.36,1.36-1.36h4.541c0.751,0,1.36,0.609,1.36,1.36v4.541C135.364,177.123,134.755,177.732,134.003,177.732z"/>
			<path id="XMLID_754_" style="opacity:0.5;fill:#FEFFFF;" d="M173.442,177.732h-27.733c-0.751,0-1.36-0.609-1.36-1.36v-4.541
				c0-0.751,0.609-1.36,1.36-1.36h27.733c0.751,0,1.36,0.609,1.36,1.36v4.541C174.802,177.123,174.193,177.732,173.442,177.732z"/>
			<path id="XMLID_753_" style="opacity:0.5;fill:#FEFFFF;" d="M196.254,177.732h-11.288c-0.751,0-1.36-0.609-1.36-1.36v-4.541
				c0-0.751,0.609-1.36,1.36-1.36h11.288c0.751,0,1.36,0.609,1.36,1.36v4.541C197.614,177.123,197.005,177.732,196.254,177.732z"/>
			<path id="XMLID_758_" style="opacity:0.5;fill:#FEFFFF;" d="M135.835,188.685h-4.541c-0.751,0-1.36-0.609-1.36-1.36v-4.54
				c0-0.751,0.609-1.36,1.36-1.36h4.541c0.751,0,1.36,0.609,1.36,1.36v4.54C137.195,188.076,136.586,188.685,135.835,188.685z"/>
			<path id="XMLID_757_" style="opacity:0.5;fill:#FEFFFF;" d="M175.274,188.685H147.54c-0.751,0-1.36-0.609-1.36-1.36v-4.54
				c0-0.751,0.609-1.36,1.36-1.36h27.733c0.751,0,1.36,0.609,1.36,1.36v4.54C176.634,188.076,176.025,188.685,175.274,188.685z"/>
			<path id="XMLID_756_" style="opacity:0.5;fill:#FEFFFF;" d="M198.085,188.685h-11.288c-0.751,0-1.36-0.609-1.36-1.36v-4.54
				c0-0.751,0.609-1.36,1.36-1.36h11.288c0.751,0,1.36,0.609,1.36,1.36v4.54C199.445,188.076,198.836,188.685,198.085,188.685z"/>
		</g>
	</g>
	<g id="XMLID_857_">
		<g id="XMLID_405_">
			<path id="XMLID_397_" style="fill:#F99889;" d="M292.491,424.154c-4.519,4.811-9.133,0.51-9.133,0.51l-1.543-18.126l10.679,0.954
				C292.494,407.491,292.569,421.102,292.491,424.154z"/>
			<g id="XMLID_381_">
				<g id="XMLID_395_">
					<path style="fill:#514342;" d="M293.78,432.494c0.008,0.675-0.525,1.229-1.199,1.248c-5.351,0.153-26.63,0.761-26.669,0.76
						c-0.787-0.021-1.417-0.65-1.448-1.436c-0.068-1.698,1.177-3.492,2.731-4.41c3.456-2.04,10.499-1.424,14.395-10.426
						c0.252-0.582,0.991-0.778,1.484-0.379c1.403,1.134,2.487,2.694,3.966,3.756c2.45,1.76,4.509-0.22,6.17,2.259
						C293.633,424.499,293.75,430.005,293.78,432.494z"/>
					<path style="fill:#463C3A;" d="M265.904,434.808c-0.94-0.025-1.707-0.784-1.744-1.729c-0.069-1.716,1.116-3.643,2.881-4.685
						c0.936-0.553,2.132-0.919,3.398-1.306c3.587-1.097,8.052-2.463,10.872-8.979c0.16-0.371,0.477-0.638,0.87-0.735
						c0.385-0.095,0.78-0.007,1.087,0.24c0.654,0.528,1.244,1.151,1.815,1.753c0.666,0.703,1.355,1.43,2.137,1.992
						c1.038,0.746,2,0.771,2.93,0.795c1.141,0.029,2.321,0.06,3.314,1.542c0.347,0.518,0.557,3.477,0.623,8.794
						c0.01,0.835-0.661,1.533-1.496,1.557C292.324,434.056,266.031,434.808,265.904,434.808z M282.483,417.947
						c-0.052,0-0.105,0.007-0.158,0.019c-0.205,0.051-0.371,0.191-0.455,0.384c-2.932,6.775-7.546,8.187-11.254,9.321
						c-1.284,0.393-2.393,0.732-3.266,1.248c-1.555,0.918-2.641,2.657-2.582,4.134c0.025,0.625,0.531,1.127,1.151,1.143
						c0.197-0.004,21.014-0.599,26.652-0.76c0.504-0.014,0.909-0.436,0.903-0.94c-0.072-5.771-0.325-8.165-0.519-8.462
						c-0.817-1.22-1.703-1.243-2.824-1.271c-0.975-0.026-2.08-0.054-3.271-0.91c-0.829-0.596-1.538-1.344-2.224-2.068
						c-0.556-0.588-1.132-1.195-1.755-1.698C282.768,417.996,282.628,417.947,282.483,417.947z"/>
				</g>
				<g id="XMLID_394_">
					<path style="fill:#FFFFFF;" d="M265.795,433.869c-0.164,0-0.299-0.13-0.305-0.295c-0.006-0.168,0.126-0.309,0.295-0.315
						l26.841-0.898c0.193-0.006,0.309,0.127,0.315,0.295c0.005,0.168-0.126,0.309-0.295,0.315l-26.841,0.898
						C265.802,433.869,265.798,433.869,265.795,433.869z"/>
				</g>
				<g id="XMLID_393_">
					<path style="fill:#FFFFFF;" d="M282.314,425.388c-0.023,0-0.046-0.002-0.069-0.008c-1.38-0.318-2.802-0.715-3.695-1.732
						c-0.111-0.127-0.099-0.32,0.028-0.431c0.127-0.111,0.32-0.099,0.431,0.028c0.774,0.882,2.091,1.245,3.374,1.54
						c0.164,0.038,0.267,0.202,0.229,0.366C282.578,425.292,282.452,425.388,282.314,425.388z"/>
				</g>
				<g id="XMLID_392_">
					<path style="fill:#FFFFFF;" d="M279.055,427.77c-0.034,0-0.068-0.005-0.102-0.017c-1.401-0.495-2.697-1.033-3.165-2.168
						c-0.065-0.156,0.009-0.334,0.165-0.398c0.155-0.066,0.334,0.009,0.399,0.166c0.372,0.901,1.539,1.377,2.804,1.824
						c0.159,0.056,0.242,0.231,0.186,0.39C279.299,427.692,279.181,427.77,279.055,427.77z"/>
				</g>
				<g id="XMLID_391_">
					<path style="fill:#FFFFFF;" d="M275.583,429.115c-0.039,0-0.078-0.007-0.115-0.023c-0.572-0.233-2.455-1.067-2.681-2.014
						c-0.039-0.164,0.062-0.328,0.226-0.368c0.164-0.041,0.329,0.062,0.368,0.226c0.097,0.408,1.094,1.091,2.318,1.59
						c0.156,0.064,0.231,0.242,0.167,0.398C275.817,429.044,275.704,429.115,275.583,429.115z"/>
				</g>
			</g>
			<path id="XMLID_404_" style="fill:#F99889;" d="M347.498,430.932c-4.519,4.811-9.133,0.51-9.133,0.51l-1.543-18.126l10.679,0.954
				C347.501,414.27,347.576,427.881,347.498,430.932z"/>
			<g id="XMLID_398_">
				<g id="XMLID_403_">
					<path style="fill:#514342;" d="M348.787,439.273c0.008,0.674-0.525,1.229-1.199,1.248c-5.351,0.153-26.63,0.761-26.669,0.76
						c-0.787-0.021-1.417-0.65-1.448-1.436c-0.068-1.698,1.177-3.492,2.731-4.41c3.456-2.04,10.499-1.424,14.395-10.426
						c0.252-0.582,0.991-0.778,1.484-0.379c1.403,1.134,2.487,2.694,3.966,3.756c2.45,1.76,4.509-0.219,6.17,2.259
						C348.64,431.278,348.756,436.784,348.787,439.273z"/>
					<path style="fill:#463C3A;" d="M320.914,441.587c-0.944-0.025-1.71-0.785-1.748-1.729c-0.069-1.716,1.115-3.643,2.881-4.685
						c0.936-0.553,2.132-0.919,3.398-1.306c3.588-1.097,8.052-2.463,10.872-8.978c0.161-0.371,0.478-0.639,0.87-0.736
						c0.383-0.095,0.78-0.007,1.086,0.24c0.655,0.529,1.245,1.152,1.816,1.754c0.666,0.703,1.354,1.429,2.136,1.991
						c1.038,0.746,2,0.771,2.93,0.795c1.142,0.03,2.322,0.06,3.315,1.543c0.347,0.518,0.556,3.476,0.622,8.794
						c0.01,0.835-0.661,1.533-1.496,1.556C347.331,440.834,321.004,441.587,320.914,441.587z M337.491,424.726
						c-0.052,0-0.105,0.007-0.158,0.019c-0.206,0.051-0.372,0.191-0.456,0.385c-2.932,6.774-7.546,8.186-11.253,9.32
						c-1.284,0.393-2.393,0.732-3.267,1.248c-1.555,0.918-2.64,2.657-2.581,4.134c0.025,0.625,0.531,1.128,1.151,1.144
						c0.176-0.004,21.147-0.603,26.652-0.761c0.504-0.014,0.909-0.435,0.903-0.939c-0.072-5.771-0.324-8.165-0.519-8.462
						c-0.818-1.22-1.703-1.244-2.824-1.272c-0.975-0.026-2.079-0.054-3.27-0.909c-0.828-0.595-1.537-1.344-2.223-2.067
						c-0.557-0.588-1.133-1.196-1.756-1.699C337.775,424.775,337.635,424.726,337.491,424.726z"/>
				</g>
				<g id="XMLID_402_">
					<path style="fill:#FFFFFF;" d="M320.802,440.648c-0.164,0-0.299-0.13-0.305-0.295c-0.005-0.168,0.126-0.309,0.295-0.315
						l26.841-0.899c0.174,0,0.309,0.13,0.315,0.295c0.005,0.168-0.126,0.309-0.295,0.315l-26.841,0.899
						C320.808,440.648,320.805,440.648,320.802,440.648z"/>
				</g>
				<g id="XMLID_401_">
					<path style="fill:#FFFFFF;" d="M337.32,432.166c-0.023,0-0.045-0.002-0.069-0.008c-1.38-0.318-2.802-0.714-3.695-1.732
						c-0.111-0.127-0.098-0.319,0.028-0.431c0.126-0.111,0.319-0.098,0.431,0.028c0.774,0.881,2.091,1.244,3.374,1.54
						c0.164,0.038,0.267,0.202,0.229,0.366C337.585,432.071,337.459,432.166,337.32,432.166z"/>
				</g>
				<g id="XMLID_400_">
					<path style="fill:#FFFFFF;" d="M334.062,434.548c-0.034,0-0.068-0.005-0.102-0.017c-1.401-0.495-2.697-1.033-3.165-2.168
						c-0.064-0.156,0.009-0.334,0.166-0.398c0.157-0.065,0.334,0.01,0.398,0.166c0.372,0.901,1.539,1.377,2.805,1.824
						c0.158,0.056,0.242,0.231,0.186,0.39C334.305,434.47,334.188,434.548,334.062,434.548z"/>
				</g>
				<g id="XMLID_399_">
					<path style="fill:#FFFFFF;" d="M330.59,435.895c-0.039,0-0.077-0.007-0.116-0.023c-0.572-0.234-2.456-1.069-2.681-2.014
						c-0.039-0.164,0.062-0.328,0.226-0.368c0.165-0.043,0.328,0.062,0.368,0.226c0.097,0.407,1.094,1.091,2.319,1.591
						c0.156,0.064,0.231,0.242,0.167,0.398C330.825,435.823,330.711,435.895,330.59,435.895z"/>
				</g>
			</g>
		</g>
		<g id="XMLID_281_">
			<path id="XMLID_290_" style="fill:#CE6545;" d="M285.027,144.113c-2.51-0.133-1.753-3.957,3.957-1.855
				c1.622,0.597,2.957,1.919,3.597,3.521C289.691,142.074,286.216,144.176,285.027,144.113z"/>
			<path id="XMLID_286_" style="fill:#E26F4B;" d="M283.957,141.135c-3.852-1.033,0.17-4.398,5.27-0.396
				c1.241,0.974,2.45,2.944,3.027,4.425C289.859,142.418,287.004,141.952,283.957,141.135z"/>
			<path id="XMLID_285_" style="fill:#EF794C;" d="M284.439,138.683c-0.61-0.261-2.921-1.08-2.522-2.778
				c0.439-0.171,0.929,0.002,1.368,0.174c5.57,2.18,6.979,2.188,9.148,6.033c1.082,1.918,2.087,5.279,1.301,7.525
				C292.251,146.222,292.276,142.037,284.439,138.683z"/>
			<path id="XMLID_796_" style="fill:#F99889;" d="M288.222,131.114c-0.453-0.354-1.091,0.075-0.915,0.623
				c5.077,15.83,5.016,15.304,4.881,16.281c-0.141,1.015-0.815,1.619-3.373,0.06c-1.174-0.715-1.896-2.193-3.152-2.606
				c-0.647-0.213-1.267,0.376-1.113,1.039c0.782,3.381,4.233,5.789,6.276,7.985c0.249,0.268,1.096,1.375,2.237,2.436
				c0.296,0.275,0.508,0.63,0.623,1.018l2.661,9.016l8.604-2.651c-1.344-2.507-4.895-8.979-7.014-13.627L288.222,131.114z"/>
		</g>
		<g id="XMLID_278_">
			<path style="fill:#BE8F62;" d="M357.139,208.795c2.121,9.489,6.102,26.412-17.347,15.321
				c-19.938-9.431-29.382-15.299-33.189-17.914c-1.418-0.974-2.514-2.347-3.179-3.934c-4.825-11.522-7.639-23.047-10.76-41.667
				c-0.066-0.392,0.14-0.786,0.503-0.948c3.376-1.509,5.433-2.003,9.543-2.424c0.4-0.041,0.774,0.194,0.91,0.572
				c3.035,8.431,8.236,21.685,12.284,31.069c0.983,2.278,2.87,4.039,5.206,4.872c3.558,1.268,8.839,3.179,11.597,4.313
				C343.451,202.472,357.139,208.795,357.139,208.795z"/>
			<path style="fill:#AD7446;" d="M352.042,228.071c-3.085,0-7.186-1.223-12.38-3.68c-19.887-9.406-29.356-15.276-33.231-17.938
				c-1.455-1-2.592-2.406-3.288-4.067c-4.601-10.989-7.523-22.3-10.779-41.735c-0.09-0.533,0.189-1.058,0.679-1.277
				c3.329-1.488,5.401-2.015,9.636-2.449c0.541-0.056,1.044,0.263,1.229,0.772c3.211,8.921,8.489,22.27,12.277,31.051
				c0.944,2.187,2.776,3.902,5.028,4.706c3.798,1.354,8.896,3.201,11.611,4.318c10.627,4.37,24.307,10.683,24.444,10.746
				l0.137,0.064l0.092,0.411c1.359,6.076,3.221,14.398-0.916,17.707C355.437,227.613,353.929,228.071,352.042,228.071z
				 M302.799,157.529c-0.02,0-0.039,0.001-0.059,0.003c-4.159,0.426-6.19,0.942-9.449,2.399c-0.236,0.105-0.37,0.36-0.326,0.619
				c3.248,19.384,6.159,30.659,10.74,41.6c0.65,1.553,1.712,2.867,3.071,3.8c3.859,2.651,13.298,8.502,33.146,17.889
				c8.027,3.798,13.504,4.6,16.276,2.383c3.84-3.07,1.952-11.511,0.702-17.097l-0.026-0.117c-1.461-0.673-14.24-6.542-24.284-10.673
				c-2.704-1.112-7.792-2.956-11.583-4.308c-2.411-0.86-4.374-2.697-5.384-5.038c-3.792-8.791-9.076-22.155-12.291-31.086
				C303.25,157.677,303.036,157.529,302.799,157.529z"/>
		</g>
		<path id="XMLID_356_" style="fill:#F99889;" d="M352.678,196.253c2.183,1.398,5.939,7.193-0.556,11.288
			c-1.518,0.957-3.545,0.441-5.327,0.243c-4.973-0.552-9.911-1.421-14.775-2.598c-2.212-0.536-4.614-5.729-0.568-8.287
			c5.558-3.514,6.825-16.528,4.344-17.519l16.106-1.45C350.383,184.468,346.728,192.444,352.678,196.253z"/>
		<path id="XMLID_852_" style="fill:#F99889;" d="M328.291,172.292c0.582-2.91,1.076-6.034,1.658-8.943
			c0.265-1.324,0.818-4.009,0.846-6.216c0.014-1.078-1.539-1.249-1.773-0.196c-1.232,5.553-4.645,11.254-5.275,12.396
			C322.992,170.7,328.291,172.292,328.291,172.292z"/>
		<path id="XMLID_355_" style="fill:#F99889;" d="M328.005,159.346c-3.738,12.869-0.539,28.657,7.704,27.504
			c6.473-0.905,18.211-3.001,21.948-15.87c3.738-12.869,1.137-22.879-6.856-25.201C342.808,143.458,331.743,146.477,328.005,159.346
			z"/>
		<path id="XMLID_334_" style="fill:#EF794C;" d="M336.77,186.426c5.478-1.953,10.861-5.732,11.472-6.03
			c-2.903,3.533-9.949,8.752-12.661,10.659C336.235,189.265,336.486,188.141,336.77,186.426z"/>
		<g id="XMLID_274_">
			<path style="fill:#637690;" d="M344.013,256.134c13.534,0.177,16.92,2.692,15.639,21.914
				c-7.091,106.411-9.996,136.65-10.595,142.406c-0.072,0.69-0.58,1.246-1.258,1.389c-3.689,0.779-9.615,1.195-14.816-0.527
				c-0.589-0.195-1.015-0.704-1.09-1.32c-1.046-8.608-8.786-73.299-13.996-145.174c-0.352-4.859-3.725-10.999,1.199-14.301
				C323.619,257.487,338.597,256.063,344.013,256.134z"/>
			<path style="fill:#3B3348;" d="M341.083,422.824c-2.509,0-5.393-0.29-8.197-1.219c-0.7-0.232-1.209-0.85-1.297-1.574
				c-0.882-7.256-8.763-72.978-13.997-145.189c-0.091-1.256-0.383-2.58-0.693-3.982c-0.873-3.956-1.775-8.046,2.026-10.595
				c4.599-3.084,19.672-4.522,25.091-4.438c6.422,0.084,10.639,0.672,13.186,3.432c2.689,2.912,3.461,8.185,2.753,18.808
				c-7.157,107.39-10.082,137.476-10.596,142.417c-0.086,0.82-0.688,1.485-1.499,1.656
				C346.796,422.366,344.235,422.824,341.083,422.824z M343.608,256.436c-5.667,0-19.955,1.395-24.342,4.337
				c-3.456,2.317-2.637,6.028-1.77,9.956c0.3,1.361,0.612,2.769,0.706,4.069c5.233,72.196,13.113,137.904,13.994,145.159
				c0.061,0.498,0.399,0.907,0.884,1.068c6.18,2.047,12.78,0.914,14.657,0.518c0.551-0.116,0.96-0.567,1.018-1.122
				c0.513-4.939,3.438-35.016,10.593-142.394c0.695-10.434-0.031-15.58-2.592-18.353c-2.4-2.598-6.49-3.154-12.747-3.236
				C343.881,256.437,343.746,256.436,343.608,256.436z"/>
		</g>
		<g id="XMLID_413_">
			<path style="fill:#3B3348;" d="M344.171,419.46c-0.169,0-0.305-0.137-0.305-0.305c0-25.965,0.395-44.085,0.743-60.072
				c0.507-23.246,0.907-41.607-0.083-72.963c-0.005-0.168,0.127-0.309,0.296-0.315c0.169,0.009,0.309,0.127,0.315,0.296
				c0.99,31.372,0.59,49.74,0.083,72.995c-0.348,15.983-0.743,34.1-0.743,60.059C344.476,419.324,344.34,419.46,344.171,419.46z"/>
		</g>
		<g id="XMLID_412_">
			<path style="fill:#637690;" d="M308.615,362.235c1.955-8.382,5.9-16.159,11.451-22.737
				c20.716-24.554,47.295-49.844,42.037-69.886c-3.546-13.514-32.104-16.323-46.075-16.424c0.83,6.091,4.718,14.288,0.91,21.492
				c-9.696,18.343-20.854,41.581-27.354,56.02c-7.86,17.461-7.335,35.098-10.362,83.536c-0.055,0.878,0.612,1.638,1.49,1.692
				l13.821,0.847c0.774,0.048,1.47-0.471,1.646-1.226L308.615,362.235z"/>
			<path style="fill:#3B3348;" d="M294.632,417.083c-0.039,0-0.079-0.001-0.119-0.003l-13.821-0.847
				c-0.504-0.031-0.967-0.257-1.302-0.637c-0.337-0.382-0.505-0.871-0.474-1.379c0.543-8.694,0.975-16.444,1.356-23.283
				c1.758-31.572,2.561-45.982,9.033-60.36c6.246-13.876,17.474-37.331,27.362-56.038c2.784-5.266,1.366-11.108,0.115-16.263
				c-0.434-1.788-0.843-3.477-1.057-5.044l-0.048-0.349l0.352,0.003c7.027,0.051,42.286,1.093,46.367,16.652
				c4.454,16.976-13.982,37.978-31.811,58.288c-3.421,3.897-6.958,7.926-10.287,11.872c-5.527,6.551-9.464,14.369-11.386,22.609
				l-0.297-0.069l0.297,0.069l-12.437,53.314C296.274,416.483,295.51,417.083,294.632,417.083z M316.381,253.496
				c0.22,1.439,0.597,2.994,0.995,4.633c1.277,5.26,2.724,11.222-0.168,16.693c-9.883,18.695-21.103,42.135-27.346,56.003
				c-6.426,14.275-7.226,28.649-8.98,60.143c-0.381,6.839-0.813,14.59-1.356,23.287c-0.022,0.345,0.093,0.677,0.322,0.937
				c0.227,0.258,0.54,0.411,0.882,0.432l13.821,0.847c0.639,0.042,1.187-0.377,1.33-0.991l12.437-53.314
				c1.945-8.334,5.926-16.24,11.515-22.865c3.333-3.951,6.872-7.982,10.295-11.882c17.724-20.19,36.051-41.067,31.68-57.73
				C358.749,258.03,335.51,253.686,316.381,253.496z"/>
		</g>
		<g id="XMLID_426_">
			<g id="XMLID_415_">
				<path style="fill:#3B3348;" d="M292.519,413.621c-0.201-0.02-0.322-0.171-0.304-0.339c1.994-18.197,10.024-54.806,15.82-68.752
					c3.081-7.413,10.66-15.817,18.683-24.714c15.297-16.962,32.635-36.188,26.864-56.254c-0.047-0.162,0.047-0.331,0.209-0.378
					c0.165-0.047,0.331,0.047,0.378,0.209c5.865,20.391-11.594,39.751-26.997,56.831c-7.988,8.857-15.532,17.224-18.573,24.539
					c-5.779,13.905-13.787,50.425-15.777,68.585C292.804,413.505,292.672,413.621,292.519,413.621z"/>
			</g>
			<g id="XMLID_425_">
				<path style="fill:#3B3348;" d="M353.515,281.055c-0.043,0-0.086-0.009-0.128-0.028c-5.728-2.63-6.098-10.237-6.276-13.893
					l-0.021-0.427c-0.009-0.168,0.12-0.312,0.289-0.32c0.181-0.014,0.312,0.122,0.32,0.289l0.021,0.428
					c0.172,3.536,0.53,10.893,5.921,13.367c0.153,0.07,0.22,0.252,0.15,0.405C353.741,280.99,353.63,281.055,353.515,281.055z"/>
			</g>
		</g>
		<g id="XMLID_276_">
			<path style="fill:#FFFFF7;" d="M321.258,206.913c0.819-2.266,9.961-9.888,11.99-9.876c7.604,0.046,19.215-2.573,19.215-2.573
				c8.192,8.192,11.142,40.931,11.421,77.787l-38.684,0.863c-6.097,0.136-11.147-4.697-11.274-10.794
				C313.651,248.964,314.392,225.903,321.258,206.913z"/>
			<path style="fill:#EEE4D9;" d="M324.949,273.421c-2.936,0-5.71-1.112-7.836-3.149c-2.188-2.095-3.427-4.917-3.49-7.946
				c-0.258-12.429,0.353-36.17,7.349-55.517c0.793-2.196,9.955-10.078,12.273-10.078c0.066,0.005,0.135,0.001,0.201,0.001
				c7.486,0,18.836-2.54,18.951-2.566l0.165-0.037l0.119,0.119c9.095,9.094,11.279,47.437,11.511,78.001l0.003,0.301l-38.984,0.869
				C325.122,273.42,325.035,273.421,324.949,273.421z M321.545,207.016c-6.961,19.254-7.569,42.91-7.312,55.297
				c0.06,2.866,1.232,5.536,3.302,7.518c2.071,1.984,4.782,3.039,7.66,2.977l38.382-0.855c-0.344-43.248-4.22-69.912-11.213-77.155
				c-1.441,0.316-11.864,2.544-18.92,2.544c-0.068,0-0.135-0.014-0.202-0.001C331.397,197.341,322.333,204.837,321.545,207.016
				L321.545,207.016z"/>
		</g>
		<path id="XMLID_410_" style="fill:#F99889;" d="M278.982,213.144l7.034,5.396l-7.422,6.614
			c-10.598-14.867-10.549-14.203-11.944-17.68c-4.051-10.1-5.767-13.482-5.342-15.787c0.146-0.788,1.186-0.993,1.659-0.346
			c2.004,2.739,2.368,10.74,7.857,13.728c0.769,0.419,1.696-0.22,1.597-1.09c-0.244-2.136-1.548-4.435-1.321-6.348
			c0.072-0.61,0.863-0.851,1.267-0.388c2.159,2.473,4.232,9.495,5.132,13.578C277.702,211.747,278.229,212.567,278.982,213.144z"/>
		<path id="XMLID_775_" style="fill:#514342;" d="M257.638,178.372c-0.416-0.585-1.334-0.2-1.205,0.506
			c0.371,2.04,2.988,6.079,3.823,7.521c3.544,6.121,5.845,13.386,9.847,19.16c0.43,0.62,1.771-0.037,1.56-0.762
			C269.66,197.956,260.597,182.537,257.638,178.372z"/>
		<g id="XMLID_794_">
			<path style="fill:#BE8F62;" d="M332.583,195.24c-2.603,1.432-7.676,10.95-6.805,15.343c5.675,28.626-5.287,50.261,2.422,78.408
				c3.326,12.143,6.219,13.062,9.546,31.869c0.89,5.029,5.911,8.074,10.846,6.758c11.783-3.142,29.034,5.712,34.491,3.516
				c7.022-2.825,15.716-40.338-6.111-80.065c-8.716-15.865-14.622-24.991-17.863-52.276
				C356.932,180.466,343.956,188.981,332.583,195.24z"/>
			<path style="fill:#AD7446;" d="M380.823,331.788c-2.593,0-6.174-0.879-10.155-1.856c-6.86-1.684-15.398-3.78-21.998-2.02
				c-2.489,0.663-5.146,0.262-7.287-1.103c-2.104-1.341-3.502-3.435-3.938-5.897c-2.069-11.696-3.935-16.368-5.911-21.314
				c-1.167-2.92-2.373-5.94-3.629-10.528c-4.079-14.894-2.924-28.258-1.807-41.181c1.01-11.681,2.054-23.759-0.62-37.248
				c-0.887-4.472,4.183-14.143,6.957-15.67c0.698-0.384,1.403-0.777,2.11-1.171c7.198-4.014,14.642-8.165,19.625-5.621
				c2.854,1.457,4.569,4.917,5.241,10.575c3.016,25.389,8.223,34.801,16.106,49.046c0.561,1.014,1.135,2.052,1.722,3.12
				c7.476,13.606,12.148,28.535,13.512,43.173c1.063,11.402,0.091,22.369-2.665,30.09c-1.416,3.965-3.152,6.533-4.889,7.232
				C382.55,331.676,381.749,331.788,380.823,331.788z M354.323,326.635c5.475,0,11.434,1.462,16.491,2.704
				c5.301,1.301,9.879,2.426,12.155,1.51c1.55-0.624,3.206-3.129,4.543-6.871c3.974-11.131,6.829-40.663-10.807-72.764
				c-0.586-1.067-1.16-2.104-1.721-3.118c-7.917-14.308-13.148-23.761-16.177-49.269c-0.646-5.441-2.253-8.746-4.913-10.104
				c-4.692-2.396-11.992,1.674-19.05,5.611c-0.708,0.395-1.413,0.788-2.113,1.173c-2.585,1.423-7.482,10.837-6.653,15.016
				c2.691,13.574,1.643,25.696,0.63,37.419c-1.164,13.462-2.263,26.178,1.788,40.967c1.247,4.555,2.447,7.558,3.607,10.462
				c1.988,4.976,3.865,9.676,5.945,21.434c0.405,2.291,1.707,4.24,3.665,5.489c1.997,1.273,4.477,1.648,6.801,1.027
				C350.336,326.835,352.297,326.635,354.323,326.635z"/>
		</g>
		<g id="XMLID_807_">
			<path style="fill:#AD7446;" d="M348.701,320.693c-0.111,0-0.217-0.061-0.272-0.166c-16.054-31.394-16.057-40.103-16.06-54.531
				c0-1.599-0.001-3.272-0.022-5.058c-0.027-2.277-0.296-6.316-0.637-11.429c-1.211-18.191-3.043-45.681,1.729-50.25
				c0.809-0.775,2.615-1.276,4.9-1.91c4.95-1.373,11.728-3.254,12.993-9.282c0.035-0.165,0.198-0.272,0.361-0.236
				c0.165,0.035,0.271,0.196,0.236,0.361c-1.342,6.392-8.327,8.33-13.427,9.745c-2.116,0.587-3.943,1.094-4.642,1.763
				c-4.566,4.371-2.673,32.789-1.542,49.768c0.342,5.123,0.611,9.169,0.639,11.462c0.021,1.788,0.022,3.464,0.022,5.065
				c0.004,14.824,0.005,22.99,15.993,54.253c0.077,0.15,0.017,0.334-0.133,0.411C348.796,320.683,348.749,320.693,348.701,320.693z"
				/>
		</g>
		<g id="XMLID_427_">
			<path style="fill:#BE8F62;" d="M337.382,216.283c-1.349,5.787-5.437,10.485-9.387,14.924
				c-8.339,9.371-15.736,18.865-19.228,22.483c-3.234,3.351-8.631,3.246-11.728-0.232l-24.262-33.038
				c-0.29-0.396-0.344-0.925-0.112-1.358c1.546-2.881,5.477-6.031,7.438-7.084c0.521-0.28,1.161-0.171,1.561,0.264
				c1.781,1.932,7.699,8.375,18.425,20.244c0.89,0.985,2.486,0.813,3.149-0.337C332.587,181.214,339.474,207.305,337.382,216.283z"
				/>
			<path style="fill:#AD7446;" d="M303.007,256.442c-0.055,0-0.109,0-0.164-0.002c-2.336-0.047-4.478-1.033-6.032-2.779
				l-24.28-33.061c-0.364-0.496-0.417-1.156-0.134-1.683c1.528-2.848,5.442-6.07,7.563-7.209c0.642-0.345,1.435-0.21,1.93,0.326
				c2.03,2.202,7.888,8.584,18.427,20.246c0.358,0.396,0.87,0.59,1.4,0.534c0.533-0.057,0.991-0.355,1.258-0.818
				c16.343-28.364,25.266-32.146,29.87-30.33c4.964,1.959,5.785,10.601,4.834,14.685c-1.399,6.004-5.68,10.814-9.457,15.058
				c-4.283,4.813-8.397,9.755-11.703,13.726c-3.256,3.911-5.828,7-7.533,8.767C307.424,255.522,305.253,256.442,303.007,256.442z
				 M280.714,212.131c-0.159,0-0.318,0.038-0.465,0.117c-2.055,1.103-5.842,4.216-7.314,6.96c-0.172,0.32-0.137,0.726,0.089,1.033
				l24.262,33.039c1.422,1.594,3.406,2.508,5.57,2.552c2.187,0.049,4.187-0.792,5.693-2.352c1.689-1.751,4.255-4.832,7.503-8.734
				c3.309-3.974,7.427-8.92,11.716-13.741c3.729-4.189,7.955-8.938,9.318-14.791c1.039-4.454-0.212-12.301-4.463-13.978
				c-3.587-1.417-12.143,0.606-29.117,30.067c-0.366,0.635-0.994,1.043-1.724,1.121c-0.727,0.075-1.427-0.189-1.917-0.731
				c-10.537-11.66-16.394-18.04-18.423-20.242C281.249,212.241,280.983,212.131,280.714,212.131z"/>
		</g>
		<g id="XMLID_282_">
			<g id="XMLID_805_">
				<path style="fill:#BE8F62;" d="M341.214,291.059c0.28,0.993,0.646,1.118,1.458,0.911c6.892-1.763,13.722-3.773,20.47-6.026
					c2.666-0.89-0.87-11.188-1.741-13.349c-0.438-1.086-17.557,3.848-22.646,7.455C338.754,280.05,339.187,283.867,341.214,291.059z
					"/>
				<path style="fill:#AD7446;" d="M342.122,292.357c-0.623,0-0.963-0.368-1.202-1.215c-2.009-7.133-2.464-11.019-2.469-11.057
					l-0.02-0.179l0.147-0.104c4.829-3.423,20.75-8.194,22.748-7.61c0.225,0.066,0.318,0.194,0.357,0.29
					c0.039,0.097,3.827,9.898,2.435,12.911c-0.199,0.43-0.494,0.713-0.88,0.842c-6.725,2.246-13.62,4.275-20.491,6.032
					C342.512,292.325,342.305,292.357,342.122,292.357z M341.508,290.976c0.231,0.82,0.424,0.869,1.088,0.698
					c6.857-1.753,13.737-3.778,20.449-6.019c0.222-0.075,0.392-0.244,0.519-0.519c1.035-2.242-1.39-9.78-2.423-12.366
					c-1.368-0.477-16.88,3.882-22.061,7.426C339.194,281.029,339.754,284.752,341.508,290.976L341.508,290.976z"/>
			</g>
			<g id="XMLID_804_">
				<path style="fill:#FFFFF7;" d="M338.582,279.503l-0.939-2.989c-0.198-0.629,22.624-7.862,22.946-6.743l0.661,2.301
					C361.421,272.666,338.932,280.616,338.582,279.503z"/>
				<path style="fill:#FFFFF7;" d="M338.878,280.196c-0.628,0-0.758-0.222-0.851-0.519l-1.041-3.313l0.256-0.304
					c0.965-1.033,21.166-7.474,23.344-6.95c0.407,0.098,0.53,0.382,0.563,0.5l0.661,2.301c0.173,0.602,0.238,0.827-6.398,3.262
					c-3.786,1.389-8.085,2.837-11.219,3.779C341.138,279.869,339.641,280.196,338.878,280.196z M338.323,276.734l0.723,2.3
					c2.563-0.075,19.081-5.842,21.536-7.178l-0.468-1.628C357.6,270.244,340.826,275.498,338.323,276.734z"/>
			</g>
		</g>
		<g id="XMLID_808_">
			<path style="fill:#AD7446;" d="M382.204,331.681c-0.047,0-0.094-0.011-0.138-0.033c-0.15-0.076-0.21-0.26-0.133-0.41
				c7.942-15.632,7.331-34.419-1.921-59.124c-5.546-14.81-8.894-21.728-11.11-26.307c-4.703-9.72-4.984-10.301-11.519-52.954
				c-0.026-0.167,0.089-0.323,0.255-0.348c0.172-0.025,0.323,0.089,0.348,0.255c6.521,42.561,6.8,43.138,11.465,52.78
				c2.22,4.588,5.575,11.522,11.131,26.358c9.316,24.875,9.918,43.819,1.893,59.615
				C382.422,331.621,382.315,331.681,382.204,331.681z"/>
		</g>
		<g id="XMLID_840_">
			<path id="XMLID_811_" style="fill:#AD7446;" d="M328.618,234.641c0.205,0.205,0.626,0.443,0.803,0.134
				c0.321-0.639,0.209-1.464-0.25-2.008c-0.091-0.107-0.251-0.141-0.379-0.082C328.165,232.977,328.222,234.245,328.618,234.641z"/>
			<path id="XMLID_813_" style="fill:#AD7446;" d="M327.976,246.379c0.205,0.205,0.626,0.443,0.803,0.134
				c0.321-0.639,0.209-1.464-0.251-2.008c-0.091-0.107-0.251-0.141-0.379-0.082C327.523,244.715,327.58,245.982,327.976,246.379z"/>
			<path id="XMLID_826_" style="fill:#AD7446;" d="M327.334,258.116c0.205,0.205,0.626,0.443,0.803,0.134
				c0.321-0.639,0.209-1.464-0.25-2.007c-0.091-0.107-0.251-0.142-0.379-0.082C326.881,256.453,326.938,257.72,327.334,258.116z"/>
			<path id="XMLID_837_" style="fill:#AD7446;" d="M327.303,269.854c0.205,0.205,0.626,0.443,0.803,0.134
				c0.321-0.639,0.209-1.464-0.251-2.007c-0.091-0.107-0.251-0.142-0.379-0.082C326.85,268.19,326.907,269.457,327.303,269.854z"/>
			<path id="XMLID_838_" style="fill:#AD7446;" d="M327.882,281.591c0.205,0.205,0.626,0.443,0.803,0.134
				c0.321-0.639,0.209-1.464-0.251-2.008c-0.091-0.107-0.251-0.141-0.379-0.082C327.429,279.928,327.486,281.195,327.882,281.591z"
				/>
		</g>
		<g id="XMLID_372_">
			<path style="fill:#AD7446;" d="M304.989,239.857c-0.052,0-0.104-0.013-0.152-0.041c-2.224-1.276-3.516-3.939-3.142-6.476
				c0.025-0.167,0.178-0.281,0.347-0.257c0.167,0.025,0.282,0.18,0.258,0.347c-0.339,2.294,0.829,4.703,2.841,5.857
				c0.146,0.084,0.197,0.27,0.113,0.417C305.197,239.802,305.095,239.857,304.989,239.857z"/>
		</g>
		<g id="XMLID_843_">
			<path style="fill:#AD7446;" d="M317.691,197.227c-0.085,0-0.17-0.035-0.23-0.105c-1.384-1.587-1.752-3.95-0.914-5.882
				c0.067-0.155,0.244-0.227,0.402-0.158c0.154,0.067,0.225,0.247,0.158,0.402c-0.746,1.719-0.419,3.824,0.814,5.237
				c0.111,0.127,0.098,0.32-0.029,0.431C317.834,197.202,317.763,197.227,317.691,197.227z"/>
		</g>
		<path id="XMLID_848_" style="fill:#382823;" d="M330.041,166.439c-0.867-0.068-1.285-3.417,0.817-3.252
			C331.981,163.276,331.46,166.551,330.041,166.439z"/>
		<path id="XMLID_847_" style="fill:#FFFFFF;" d="M326.954,176.428c1.177-0.055,2.768-0.088,4.792-0.138
			c1.152-0.028-0.661,3.737-4.202,2.741C327.232,178.075,327.124,177.413,326.954,176.428z"/>
		<path id="XMLID_293_" style="fill:#4D3930;" d="M340.643,157.458c7.074,10.372-2.91,15.073-0.299,23.558
			c3.945,12.819,13.27,3.139,13.336,31.404c0.035,15.174,6.174,22.739,22.832,24.335c20.031,1.919,33.19-26.549,26.249-28.901
			c-13.074-4.43,4.365-19.112-12.268-30.128c-8.46-5.603-12.857-10.55-19.656-28.05c-2.501-6.438-12.031-15.136-26.277-11.92
			c-4.641,1.048-12.058,3.587-13.91,8.025C328.3,151.409,337.836,153.343,340.643,157.458z"/>
		<path id="XMLID_300_" style="fill:#4D3930;" d="M328.96,161.291c-0.383,0.058-0.782-0.01-1.05-0.222
			c-0.671-0.533,0.018-1.27,0.724-1.629c1.433-0.729,3.444-0.463,5.069,0.15c0.343,0.13,0.328,0.628-0.022,0.738
			C332.922,160.567,331.522,160.905,328.96,161.291z"/>
		<g id="XMLID_310_">
			<path style="fill:#4D3930;" d="M355.758,206.114c-0.203-0.022-0.323-0.173-0.304-0.341c0.873-7.468-3.946-11.796-8.606-15.982
				c-5.385-4.837-10.955-9.84-6.614-19.519c3.819-8.517-0.92-12.465-5.102-15.949c-2.866-2.388-5.573-4.643-4.631-7.981
				c0.046-0.162,0.216-0.259,0.377-0.211c0.162,0.046,0.257,0.214,0.211,0.376c-0.835,2.956,1.607,4.99,4.435,7.346
				c4.133,3.443,9.277,7.729,5.268,16.668c-4.159,9.273,1.001,13.908,6.464,18.815c4.776,4.29,9.714,8.725,8.805,16.507
				C356.042,205.999,355.91,206.114,355.758,206.114z"/>
		</g>
		<g id="XMLID_319_">
			<path style="fill:#4D3930;" d="M378.171,236.77c-2.913,0-6.047-0.483-9.351-1.674c-0.159-0.057-0.241-0.232-0.184-0.39
				c0.058-0.159,0.231-0.241,0.391-0.184c9.959,3.59,18.359,0.6,23.652-2.541c8.051-4.779,13.645-12.688,14.401-17.574
				c0.799-5.162-1.74-7.005-4.196-8.787c-0.998-0.725-1.942-1.409-2.591-2.29c-2.135-2.898-1.28-6.393-0.452-9.773
				c0.536-2.189,1.09-4.451,0.792-6.476c-0.683-4.647-4.239-6.86-8.74-9.662c-4.929-3.068-11.064-6.887-14.77-15.457
				c-0.361-0.835-0.721-1.718-1.094-2.634c-3.615-8.88-8.566-21.041-28.706-21.041c-0.169,0-0.305-0.136-0.305-0.305
				c0-0.169,0.137-0.305,0.305-0.305c20.55,0,25.591,12.381,29.271,21.421c0.371,0.912,0.729,1.791,1.089,2.622
				c3.63,8.395,9.422,12,14.532,15.181c4.452,2.771,8.298,5.165,9.022,10.091c0.315,2.143-0.253,4.465-0.803,6.71
				c-0.831,3.393-1.616,6.597,0.351,9.266c0.593,0.804,1.499,1.462,2.458,2.158c2.483,1.802,5.297,3.844,4.441,9.375
				c-0.778,5.026-6.487,13.135-14.693,18.005C389.339,234.673,384.237,236.77,378.171,236.77z"/>
		</g>
		<g id="XMLID_855_">
			<g id="XMLID_333_">
				<path style="fill:#382823;" d="M340.614,152.18c-0.047,0-0.095-0.011-0.139-0.034c-2.358-1.208-4.621-2.639-6.726-4.253
					c-0.694-0.533-0.982-1.169-0.857-1.891c0.479-2.75,7.232-5.775,9.003-6.341c0.16-0.051,0.332,0.037,0.384,0.198
					c0.051,0.161-0.038,0.332-0.198,0.384c-2.396,0.766-8.208,3.686-8.587,5.865c-0.085,0.487,0.12,0.913,0.627,1.302
					c2.075,1.592,4.306,3.003,6.631,4.194c0.15,0.077,0.21,0.261,0.133,0.411C340.831,152.12,340.724,152.18,340.614,152.18z"/>
			</g>
			<g id="XMLID_845_">
				<path style="fill:#382823;" d="M397.991,213.087c-0.034,0-0.069-0.006-0.103-0.018c-5.062-1.818-8.801-6.638-9.304-11.992
					c-0.175-1.866,0.015-3.797,0.2-5.666c0.314-3.186,0.611-6.195-0.758-8.879c-1.524-2.988-4.33-4.381-7.578-5.995
					c-4.213-2.093-8.987-4.465-11.918-11.059c-1.341-3.019-1.881-6.181-2.403-9.24c-0.833-4.879-1.694-9.925-5.782-14.817
					c-1.304-1.561-4.802-5.114-9.042-4.422c-0.162,0.027-0.323-0.086-0.35-0.252c-0.027-0.166,0.085-0.323,0.251-0.351
					c4.559-0.742,8.239,2.992,9.61,4.633c4.194,5.018,5.069,10.146,5.915,15.106c0.539,3.16,1.049,6.146,2.359,9.094
					c2.841,6.394,7.511,8.714,11.632,10.761c3.206,1.592,6.234,3.097,7.85,6.264c1.45,2.843,1.131,6.083,0.822,9.216
					c-0.181,1.839-0.369,3.742-0.199,5.549c0.481,5.124,4.059,9.735,8.902,11.475c0.159,0.057,0.241,0.232,0.184,0.391
					C398.234,213.01,398.116,213.087,397.991,213.087z"/>
			</g>
			<g id="XMLID_846_">
				<path style="fill:#382823;" d="M371.12,227.634c-11.185-1.415-11.585-16.442-11.735-22.099c-0.016-0.584-0.029-1.079-0.05-1.463
					c-0.65-11.715-4.823-15.185-8.505-18.246c-2.397-1.993-4.661-3.875-5.489-7.745c-0.612-2.856,0.333-5.86,1.246-8.765
					c1.385-4.407,2.694-8.57-1.105-12.144c-0.123-0.116-0.129-0.309-0.013-0.432c0.116-0.123,0.309-0.128,0.432-0.013
					c4.077,3.837,2.649,8.379,1.268,12.772c-0.889,2.83-1.809,5.756-1.231,8.455c0.784,3.663,2.869,5.396,5.282,7.403
					c3.778,3.141,8.06,6.701,8.724,18.682c0.022,0.389,0.035,0.89,0.051,1.481c0.16,6.033,0.536,20.16,11.163,21.507
					c0.168,0.021,0.285,0.174,0.265,0.341C371.403,227.522,371.272,227.634,371.12,227.634z"/>
			</g>
			<g id="XMLID_854_">
				<path style="fill:#382823;" d="M387.473,224.129c-0.143,0-0.27-0.101-0.299-0.246c-0.707-3.59-4.024-5.116-7.538-6.731
					c-2.239-1.029-4.555-2.094-6.093-3.747c-2.463-2.647-3.125-7.34-3.893-12.774c-1.053-7.461-2.364-16.746-9.024-23.985
					c-0.114-0.124-0.106-0.317,0.018-0.431c0.125-0.114,0.318-0.106,0.432,0.018c6.788,7.379,8.114,16.768,9.179,24.313
					c0.753,5.332,1.403,9.937,3.735,12.443c1.456,1.565,3.716,2.604,5.901,3.609c3.497,1.608,7.114,3.271,7.881,7.168
					c0.033,0.165-0.075,0.326-0.24,0.359C387.513,224.127,387.493,224.129,387.473,224.129z"/>
			</g>
		</g>
	</g>
</g>
</svg>
